<svg xmlns="http://www.w3.org/2000/svg" width="422" height="415" style=""><rect id="backgroundrect" width="100%" height="100%" x="0" y="0" fill="none" stroke="none"/>
 <defs>
  <linearGradient id="c" x1="0.6130852895305692" x2="0.24571378583270717" y1="0.8472368096469881" y2="0.11017678636486543">
   <stop stop-color="#54d926" offset="0"/>
   <stop stop-color="#99ac99" offset="1"/>
  </linearGradient>
  <linearGradient id="b" x1="0.5850134078487567" x2="0.6500003015756458" y1="0.3776677796892933" y2="0.10634408163846622">
   <stop stop-color="#54b726" offset="0"/>
   <stop stop-color="#999" offset="1"/>
  </linearGradient>
  <linearGradient id="a" x1="0.5278671983769628" x2="-0.26284973090143354" y1="0.5602306122315406" y2="0.042506966019135055">
   <stop stop-color="#57cff4" offset="0"/>
   <stop stop-color="#00f" offset="1"/>
  </linearGradient>
 </defs>
 
 
 
<g class="currentLayer" style=""><title>Layer 1</title><path d="m419.5843960527344,207.79214380706094 a208.5421915,205.1993804 0 1 1 -417.084383,0 a208.5421915,205.1993804 0 1 1 417.084383,0 z" fill="url(#a)" stroke="#000" stroke-width="5" id="svg_1" class=""/><path d="m246.1647790527344,402.9668115234375 c0.6784000000000001,-3.7632000000000003 0.5141,-6.8422 -0.36500000000000005,-6.8422 s-6.1851,-4.515 -11.791,-10.033 s-12.774000000000001,-12.034 -15.929,-14.479 c-3.1549,-2.4449 -5.7363,-5.6295 -5.7363,-7.0767 c0,-4.9534 3.9106,-11.567 7.9236,-13.401 c2.9086,-1.3288000000000002 4.1684,-3.8035 4.5815,-8.9994 c0.5603,-7.0435 0.45830000000000004,-7.1666 -5.9304,-7.1666 c-9.9842,0 -20.738,-5.201 -22.056,-10.667 c-1.5378,-6.3769 -13.608,-15.04 -27.806,-19.958 c-6.4994,-2.2511 -15.196,-7.0313 -19.327,-10.623 s-8.1987,-6.5299 -9.0408,-6.5299 c-3.5585,0 -7.3022,-6.4776 -7.3022,-12.635 c0,-3.6457 -1.5518,-9.8192 -3.4484,-13.719 s-4.0259,-9.8756 -4.7318,-13.28 s-2.1606,-6.7534 -3.2326,-7.4429 c-2.7683,-1.7807 -0.07160000000000001,12.439 3.4323,18.098 c3.8336,6.1913 2.1245,6.9857 -2.9453,1.3689 c-2.3869000000000002,-2.6444 -6.4317,-12.448 -9.3481,-22.658 c-4.5962,-16.09 -4.9683,-19.392 -3.5109,-31.164 c0.8965000000000001,-7.2423 1.6649000000000003,-14.028 1.7073,-15.079 s2.7402,-6.6411 5.9949,-12.422 c4.4045,-7.8239 5.9585,-12.954 6.0781,-20.067 c0.08810000000000003,-5.2555 1.6539000000000001,-15.291 3.4787,-22.301 c3.9492000000000003,-15.17 2.8632,-24.829 -3.1421,-27.95 c-2.257,-1.1731 -7.2022,-3.4176 -10.989,-4.9877 c-6.9881,-2.8971 -9.7217,-7.286 -3.48,-5.5872 c2.4611,0.6698000000000002 4.5145,-1.0287 7.4027,-6.1235 c3.2836,-5.7923 4.8173,-6.8872 8.5946,-6.1357 c3.1405,0.6248000000000001 5.1429,-0.14550000000000002 6.3177,-2.4304 c1.0694,-2.0794 5.003,-3.8575 10.396,-4.6992 c9.7585,-1.5231 13.453,1.3151000000000002 13.47,10.347 c0.018500000000000003,5.7016 4.9115,12.102 16.706,21.817 c11.179,9.2083 13.781,8.8024 7.2714,-1.1343 c-5.7929,-8.8424 -5.6939,-11.015 0.502,-11.015 c5.6651,0 14.072,10.488 14.072,17.556 c0,6.6661 4.2477,6.5534 5.1912,-0.1378 c0.7635000000000001,-5.4159 4.4804,-4.2501999999999995 5.8507,1.8349000000000002 c0.6925000000000001,3.0747 2.5646,4.8583 5.5591,5.296 l4.5155,0.6599000000000002 l-4.4872,-4.9993 c-3.9096,-4.3558 -4.146,-5.3534 -1.8362,-7.7505 c2.3074,-2.3948 4.019,-2.1065 13.209,2.2251 c5.8071,2.737 10.558,6.1828 10.558,7.6573 s2.4809,4.1459 5.5133,5.9364 c6.5915,3.8922 8.0666,7.7066 5.5962,14.47 c-2.1019,5.7538 -2.5981,5.8514 -13.838000000000001,2.7227 c-8.6181,-2.399 -10.229,-4.1533 -5.5349,-6.028 c3.5973,-1.4368 3.5255,-7.7886 -0.13040000000000002,-11.595 c-3.4276,-3.5673 -6.2956,-3.8973 -6.2956,-0.7245 c0,1.2533 -4.4265,6.6701 -9.8366,12.037 c-14.578,14.463 -15.041,25.516 -1.1996,28.679 c3.6625,0.8372 5.5275,2.4306 5.5275,4.7222 c0,1.9022999999999999 1.5828000000000002,5.4889 3.5174,7.9704 l3.5174,4.5117 l1.1837,-5.7333 c0.6511000000000001,-3.1533 1.4498000000000002,-7.1596 1.7752,-8.9029 s-0.018500000000000003,-6.6003 -0.7477000000000001,-10.793 c-2.465,-14.029 3.5122999999999998,-16.294 16.006,-6.0655 c2.542,2.0812 6.4616,3.784 8.7101,3.784 c2.3937,0 7.428,3.4996 12.147,8.4437 c21.788,22.828 25.554,27.028 25.529,28.472 c-0.018500000000000003,0.8581000000000001 -2.2721,1.2881 -5.0167,0.9555 c-3.2061,-0.38850000000000007 -6.4374,-2.847 -9.0372,-6.8759 c-2.2488,-3.4852 -4.5667,-5.3955 -5.2172,-4.3 c-0.6438000000000001,1.0842 -2.5678,1.9744 -4.2756,1.9784 c-3.6974,0.010000000000000002 -15.867,7.4138 -14.508,8.8282 c0.5205,0.5417000000000001 2.7297000000000002,-0.1496 4.9094999999999995,-1.5363 c3.4131,-2.1715 4.2940000000000005,-2.0573 6.3488,0.8231 c1.3122,1.8395000000000001 4.1539,3.3444000000000003 6.315,3.3444000000000003 s3.894,1.075 3.8512,2.3889 c-0.10830000000000001,3.3337 -12.267,11.072 -15.419,9.8132 c-1.5419,-0.6158000000000001 -3.9391,1.1548 -5.9168,4.3702 c-1.8285,2.973 -4.3421,6.2654 -5.5854,7.3165000000000004 c-2.8755,2.4309000000000003 -7.8889000000000005,14.988 -7.8889000000000005,19.759 c0,2.0076 -2.8627000000000002,5.6742 -6.3889000000000005,8.1836 c-8.0988,5.763 -10.98,12.502 -8.3837,19.608 c2.5498000000000003,6.9801 2.4207,8.827 -0.6174000000000001,8.827 c-1.3949,0 -4.6930000000000005,-2.943 -7.3291,-6.54 l-4.7929,-6.54 l-17.319,-0.0369 c-16.578,-0.0354 -17.451,0.1726 -20.402,4.8603000000000005 c-9.2264,14.656 2.8653,33.085 15.386,23.45 c9.1568,-7.0461 12.885,-2.4125 9.2652,11.516 c-0.4787,1.8421 0.8603000000000001,3.0337 3.8575,3.4333 c2.5248,0.33660000000000007 6.857,1.5338 9.626900000000001,2.6605 c4.5867,1.8655 4.9372,2.6948000000000003 3.9249,9.2843 c-1.2293,8.0013 0.48040000000000005,9.7978 11.712,12.308 c4.9089,1.097 7.03,0.42110000000000003 11.807,-3.7625 c4.3989,-3.8523 7.202,-4.8743 11.46,-4.178 c3.1003,0.5069 12.458,0.14200000000000002 20.795,-0.8108000000000001 c12.208,-1.3953000000000002 16.45,-1.1704 21.8,1.1558 c3.653,1.5886 11.442,2.8883 17.31,2.8883 c9.6381,0 11.028,0.527 14.402,5.4583 c3.5364,5.1690000000000005 4.2104,5.38 12.717,3.9802999999999997 c4.9407,-0.8129000000000001 12.441,-2.5563000000000002 16.668,-3.8744 c6.4405,-2.0084 8.112,-1.9519000000000002 10.322,0.34870000000000007 c2.2927,2.3861 1.9229,3.8661000000000003 -2.827,11.316 c-3.0055,4.714 -5.9712,11.358 -6.5902,14.764 c-1.2385,6.8145 -13.105,16.713 -35.611,29.707 c-13.421,7.748 -45.878,19.43 -59.45,21.398 l-8.9539,1.298 l1.2332,-6.8422 zm-3.9825,-101.75 c-4.6844,-1.9673 -2.3715,-6.3787 3.3445,-6.3787 c5.0027,0 10.886,3.5412 10.886,6.5524000000000004 c0,1.3172000000000001 -11,1.183 -14.231,-0.17370000000000002 zm-18.821,-6.3253 c-2.5248,-2.0261 -7.7685,-4.2465 -11.652000000000001,-4.9342 c-4.2084,-0.7452000000000001 -6.3911,-1.9486 -5.4019,-2.9782 s7.4927,-0.17520000000000002 16.094,2.1144 c15.883000000000001,4.228 16.562,4.5731 14.807,7.5285 c-1.8908,3.1841 -8.7986,2.3208 -13.847,-1.7305000000000001 zm42.182,-154.32 c-6.857,-4.9624 -10.574,-10.378 -11.828,-17.234 c-1.088,-5.9454 -3.7035,-8.5685 -22.029,-22.092 c-2.5591,-1.8885 -4.6528,-4.7888 -4.6528,-6.4451 c0,-2.4602 -0.5042,-2.5759 -2.7543,-0.6323000000000001 c-1.5149,1.3085 -2.7543,3.9938000000000002 -2.7543,5.9673 c0,4.5095 -2.1297,4.5456 -7.3748000000000005,0.1252 c-3.24,-2.7305 -3.7914,-4.4486 -2.6074,-8.1222 c0.8259000000000001,-2.5625 1.5507,-5.9259 1.6103,-7.4743 c0.15790000000000004,-4.1025 9.9648,-7.3754 11.972,-3.9957000000000003 c1.2508,2.1066 2.5096,1.8185 6.5663,-1.5026000000000002 c5.708,-4.6731 14.835,-5.3512 20.182,-1.4995 c1.9921,1.4351 5.6879,3.2729 8.2126,4.084 c8.0608,2.5897 20.127,12.411 21.318,17.353 c0.7506000000000002,3.1127000000000002 0.11750000000000002,5.9635 -1.8206000000000002,8.192 c-2.0653,2.3753 -2.9718999999999998,7.0301 -2.9718999999999998,15.259 c0,11.138 0.29980000000000007,11.965 5.0496,13.927 l5.0496,2.0858 l-6.4268,2.4993 c-8.6008,3.3447 -9.4745,3.3153 -14.74,-0.49560000000000004 zm22.85,-30.112 c-1.3979000000000001,-5.7966 3.2888,-12.469 8.7578,-12.469 c4.7281,0 5.958,4.4464 3.0077,10.873 c-3.3752,7.3513 -10.156,8.2714 -11.766,1.5965 z" fill="url(#c)" stroke="#040000" stroke-width="3.068" id="svg_2" class=""/><path d="m411.4247790527344,247.15681152343745 c-8.1614,-8.4942 -30.994,-34.331 -30.896,-52.186 c0.054800000000000015,-10.135 -1.0343,-18.51 -3.233,-24.844 c-1.8241,-5.2555 -2.8825000000000003,-10.846 -2.3524000000000003,-12.422 c0.8129000000000001,-2.4166 0.5035,-2.4708 -1.9712,-0.34520000000000006 c-4.114,3.5337 -9.5676,0.1343 -13.452,-8.3848 c-2.6284,-5.7645 -2.7264,-7.4655000000000005 -0.6625000000000001,-11.48 c2.7775,-5.4012 1.2365,-7.8231 -5.5819,-8.7731 c-3.9087,-0.5446000000000001 -4.6770000000000005,-1.7751000000000001 -5.1724,-8.284 c-0.6789000000000002,-8.9206 -4.0087,-14 -4.0087,-6.1155 c0,6.0134 -0.2775,6.0971 -7.4361,2.2443 c-6.048,-3.2551 -6.9543,-2.0194 -2.3786,3.243 c2.4041,2.7649 2.5,3.4822 0.459,3.4341 c-3.6981,-0.08710000000000002 -9.0053,-4.6765 -9.0134,-7.7943 c0,-1.4608 -1.7113,-5.5658 -3.7946,-9.1222 c-4.4858,-7.6584 -2.2212,-12.584 3.3662,-7.3214 c3.1385,2.9561 15.327,9.0099 18.14,9.0099 c0.7134,0 -0.41030000000000005,-1.935 -2.4972,-4.3 s-4.3921,-7.2364 -5.1229,-10.825 c-2.3649,-11.616 -9.8245,-23.812 -16.872,-27.584 c-5.4959,-2.942 -6.4175,-3.0424 -5.5176,-0.6013000000000001 c0.5944,1.6119 0.28630000000000005,3.2062 -0.6846000000000002,3.5431 s2.3157,3.9768 7.3036,8.0889 l9.0687,7.4765 l-4.5094,3.6918 c-5.9951,4.9081 -11.807,3.2025 -18.032,-5.2919 c-2.7176,-3.7081 -8.9916,-8.8784 -13.942,-11.489 c-10.956,-5.7785 -14.55,-11.29 -9.2773,-14.228 c1.9662000000000002,-1.0953 5.351,-1.9914 7.5211,-1.9914 c2.3417,0 3.6346000000000003,-0.9713999999999999 3.1798,-2.3889 c-0.46090000000000003,-1.4365 -3.1032,-2.1389 -6.6276,-1.7618 c-3.2235,0.3449000000000001 -5.6329,-0.20390000000000003 -5.3542,-1.2194 c0.5444,-1.983 -9.9423,-11.292 -20.031,-17.782 c-4.9139,-3.1609 -6.7367,-3.5101 -8.8399,-1.6935000000000002 c-1.4572,1.2587 -9.0771,2.6815 -16.933,3.1618 c-24.774,1.5146000000000002 -28.621,1.2328000000000001 -31.088,-2.2777 c-1.7014,-2.4218 -3.6387,-2.9231 -7.4379,-1.9249 c-2.8256,0.7423000000000001 -8.1605,1.7933 -11.855,2.3354 c-4.4666,0.6554000000000001 -7.0136,2.1626 -7.6003,4.4975000000000005 c-0.5606000000000001,2.2311 -3.3002000000000002,3.9839 -7.5127,4.8064 c-4.7686,0.9311 -6.6304,2.2838000000000003 -6.6304,4.8175 c0,2.4965 -1.8274,3.8797 -6.2718,4.7475000000000005 c-4.4512,0.8691000000000001 -6.5742,2.4792 -7.314,5.5469 c-1.2515,5.1903 -16.383,20.157 -20.378,20.157 c-2.1021,0 -2.5338000000000003,-1.2293 -1.6782000000000001,-4.7778 c0.8632000000000001,-3.5798 0.42780000000000007,-4.7778 -1.7367000000000001,-4.7778 c-1.5887000000000002,0 -3.7411000000000003,-1.6577000000000002 -4.783,-3.6838 c-1.9054,-3.7057 -0.8596000000000001,-9.694 1.6934,-9.694 c3.5644,0 10.788,-9.3865 9.9102,-12.878 c-0.7077000000000001,-2.8169 0.4517,-4.3361 4.7104,-6.1721 c6.4556000000000004,-2.783 7.7986,-10.074 2.4361,-13.226 c-2.7843,-1.6364 -2.3364000000000003,-2.2721999999999998 3.3522,-4.7591 c3.6111,-1.5787 12.984,-4.6203 20.83,-6.758900000000001 c67.721,-18.461 137.48,-1.2850000000000001 188.12,46.323 c14.398,13.533 17.228,17.739 17.87,26.557 c0.30820000000000003,4.2289 1.8371,9.1573 3.3978,10.952 c4.1243,4.7432 3.4956,7.4954 -2.0429,8.9421 c-4.3424000000000005,1.1344 -4.5448,1.5302 -1.8361,3.5915 c4.1681,3.1721 3.827,6.6731 -0.6501000000000001,6.6731 c-3.3059000000000003,0 -3.5707,0.8534 -2.5202999999999998,8.1222 c1.2604,8.7221 7.1506,20.544 10.236,20.544 c1.0942,0 1.4020000000000001,-2.0048 0.7334,-4.7778 c-1.5350000000000001,-6.365 0.5261,-14.333 3.7073,-14.333 c3.4308,0 3.238,-6.6944 -0.35730000000000006,-12.405 c-1.6912000000000003,-2.6863 -2.2971,-5.663 -1.4448,-7.0982 c0.8072,-1.3595000000000002 1.2695,-5.0523 1.0275,-8.2063 l-0.4403000000000001,-5.7345 l4.6770000000000005,5.7333 c2.5722,3.1533 9.1715,15.193 14.665000000000001,26.756 c8.0709,16.987 13.163,39.681 16.187,56.668 c4.0902,22.972 4.3318,52.734 0.8683000000000001,52.734 c-1.044,0 2.1632000000000002,5.4572 0.07770000000000002,9.1361 c-4.6257,8.1595 1.1026,15.336 -5.7713,8.182 zm-35.005,-98.491 c-0.6102000000000001,-0.6350000000000001 -1.0442,0.4937 -0.9643,2.5083 c0.08810000000000003,2.2264 0.5231,2.6792000000000002 1.1092,1.1546 c0.5305,-1.3796 0.46530000000000005,-3.0279 -0.1451,-3.6630000000000003 z" fill="url(#b)" stroke="#040000" stroke-width="3.068" id="svg_3" class=""/></g></svg>