<svg xmlns="http://www.w3.org/2000/svg" width="58" height="58"><rect id="backgroundrect" width="100%" height="100%" x="0" y="0" fill="none" stroke="none"/>
 <defs>
  <radialGradient id="b" cx="181.99000549316406" cy="41.73699951171875" r="13.01099967956543" gradientTransform="matrix(1.2978 -1.6449e-7 2.6838e-7 2.1174 86.349 -41.708)" gradientUnits="userSpaceOnUse">
   <stop stop-color="#003c3c" stop-opacity="0" offset="0"/>
   <stop stop-color="#003c3c" stop-opacity=".89179" offset="1"/>
  </radialGradient>
  <radialGradient id="a" cx="156.17999267578125" cy="29.03700065612793" r="8.73960018157959" gradientTransform="matrix(.77116 -9.2297e-7 1.1275e-6 .94202 176.29 6.615)" gradientUnits="userSpaceOnUse">
   <stop stop-color="#fff" offset="0"/>
   <stop stop-color="#fff" stop-opacity=".50373" offset="1"/>
  </radialGradient>
 </defs>
 
 
 
 
 
<g class="currentLayer" style=""><title>Layer 1</title><path d="m57.399997848510736,28.899998931884767 a28.5,28.5 0 0 1 -57,0 a28.5,28.5 0 1 1 57,0 z" fill="#0ff" stroke="#000" stroke-width=".8" id="svg_1" class=""/><path d="m55.747997848510735,19.156998931884765 c-0.6871800000000001,0.6871800000000001 2.0209,7.1773 1.1516,6.7426 c-2.6368,-1.3184 -5.3857,1.1536 -6,1 c-0.6166600000000001,-0.15417 -4.9445,-3.6111 -5.5,-2.5 c-1.3337,2.6675 -1.0986,3.9013999999999998 -3,2 c-1.3437000000000001,-1.3437000000000001 -6.8437,-2.8437 -5.5,-1.5 c0.3491800000000001,0.3491800000000001 -2.2904,0.63151 -1.4749,2.2626 c0.7957700000000001,1.5915 5.5806000000000004,5.6605 5.9749,7.2374 c0.48675,1.947 -1.9191,4.5809 -0.5,6 c7.1964,5.9829 -14.089,10.062 -7,-2 c2.345,-2.345 -0.29330000000000006,-5.2067 0,-5.5 c3.0631,-3.0631 2.7719,-3.4563 1.5,-6 c-1.8469000000000002,-3.6937 -3.2346,0.19135000000000002 -6,-0.5 c-4.3853,-1.0963 -3.125,-0.99987 -4,-4.5 c-0.43871000000000004,-1.7548000000000001 -0.5,-2.1956 -0.5,-5.5 c0,-1.6667 3.7454,-2.5093 3,-4 c-2.042,-4.084 1.3433000000000002,-4.643800000000001 4,-6.5 c0.6756600000000001,0.52559 2.1954000000000002,-2.894 5.1716,-2.5 c0.3304500000000001,0.04374000000000001 3.182,0.040440000000000004 3.8891,-0.11612000000000003 c11.168,4.978 11.831,9.948 14.788,15.873 z" fill="#0f0" fill-rule="evenodd" stroke="#000" id="svg_2" class=""/><path d="m12.399997848510743,5.399998931884767 c0.6762000000000001,0.33810000000000007 5.437,1.6093000000000002 7,2 c1.377,0.34425000000000006 1.9547,4.5906 1.5,5.5 c-0.22357000000000002,0.44713 -5.8204,1.8204 -7,3 c-1.5934,1.5934 -2.4024,5.1097 -2.5,5.5 c-0.5113099999999999,2.0452 -3.9548,1.4887000000000001 -6,2 c-1.6647000000000003,0.41618000000000005 -1.4704000000000002,3.1272 -2.5,4.5 c-1.2356,1.6475 -2.8158000000000003,0.6842500000000001 0,3.5 c2.018,2.018 1.9504000000000001,-0.5496400000000001 4,1.5 c2.1161,2.1161 -0.43694000000000005,3.2815 3,5 c0.79835,0.3991800000000001 -3.4077,4.0231 0.5,5 c0.98168,0.24542000000000003 0.8322700000000001,4.8291 1,5.5 c0.45258000000000004,1.8103 0.04550000000000001,1.3431000000000002 -0.35355000000000003,2.9393000000000002 c-3.782,-4.8267 -9.918,-8.354800000000001 -10.782,-22.086 c-0.8863000000000001,-11.398 8.5335,-21.206 12.136,-23.854 z" fill="#0f0" fill-rule="evenodd" stroke="#000" id="svg_3" class=""/><path d="m57.56399784851074,29.307998931884768 c0.16873000000000005,15.184 -14.554,27.275 -26.02,28.088 c12.318,-15.586 19.831,-35.481 7.8322,-55.1 c7.8004,3.0682 16.379,9.8274 18.188,27.012 z" fill="url(#b)" opacity=".56716" id="svg_4" class=""/><path d="m17.72499784851074,24.925998931884763 c-2.903,1.2656 -8.8843,2.6096000000000004 -11.149000000000001,0.39309000000000005 c-2.2949,-2.1322 -0.7594700000000001,-7.6451 0.3128100000000001,-10.587 c2.9309000000000003,-6.8426 11.146,-9.6135 15.038,-3.7496 c2.1688,4.4966 0.48456000000000005,11.851 -4.2024,13.943 z" fill="url(#a)" opacity=".79478" id="svg_5" class=""/></g></svg>