<svg xmlns="http://www.w3.org/2000/svg" width="618" height="614" version="1.1"><rect id="backgroundrect" width="100%" height="100%" x="0" y="0" fill="none" stroke="none"/>
 
<g class="currentLayer" style=""><title>Layer 1</title><g stroke="#dbe3e2" id="svg_1" class="">
  <path d="m286.97360260009765,0.6088098144531386 c-128.97,7.6968000000000005 -246.8,104.73 -277.44,230.57 c-32.259,121.74 19.339,260.24 124.67,329.82 c99.106,68.287 238.16,71.927 339.58,6.3967 c103.31,-64.037 162.01,-192.59 139.5,-312.52 c-20.254,-119.47 -116.57,-222.05 -235.56,-247.04 c-29.704,-6.7131 -60.366,-9.081 -90.756,-7.2254000000000005 z" fill="#dbe3e2" fill-rule="evenodd" stroke-linecap="round" stroke-linejoin="round" stroke-width="2.3822" id="svg_2"/>
  <g fill="#93aca7" id="svg_3">
   <path d="m211.64360260009767,568.2988098144531 c-1.7970000000000002,4.8709 5.3956,9.411200000000001 8.0879,4.793 c-0.8850900000000002,-2.6974 -6.1147,-4.9671 -8.0879,-4.793 z" id="svg_4"/>
   <path d="m196.20360260009767,558.5988098144531 c-3.4417,2.7836 4.8363,0.06780000000000001 0.38672000000000006,-0.15625000000000003 c-0.15497000000000002,-0.029600000000000005 -0.33699000000000007,-0.13532 -0.38672000000000006,0.15625000000000003 z" id="svg_5"/>
   <path d="m175.14360260009767,550.4588098144532 c-2.2397,2.0201 -0.30969,3.9777 1.9883,2.7559 c2.6708000000000003,-0.55952 -1.464,-2.8538 -1.9883,-2.7559 z" id="svg_6"/>
   <path d="m153.81360260009765,539.6788098144531 c-1.7048,1.846 -2.1703,5.6631 1.3242,3.9922 c2.6154,-0.36210000000000003 6.6163,-3.822 1.248,-4.0644 c-0.7598600000000001,0.05660000000000001 -2.3004000000000002,-1.0396 -2.5723000000000003,0.0723 zm36.719,1.8418 c-4.1316,0.78323 0.25930000000000003,1.2878 0,0 z" id="svg_7"/>
   <path d="m399.90360260009766,525.6388098144531 c-4.0367,1.8702 -9.4992,3.5951 -12.168,6.8184000000000005 c5.9797,1.133 13.695,0.8567700000000001 18.283,-3.4102 c-0.9436800000000001,-1.8356000000000001 -4.1756,-4.5125 -6.1152,-3.4082 z" id="svg_8"/>
   <path d="m153.03360260009765,524.6488098144531 c-3.8277,2.3924000000000003 0.96048,2.8094 2.3672,1.3008000000000002 c-0.6608100000000001,-0.49620000000000003 -1.6002,-1.2873 -2.3672,-1.3008000000000002 z" id="svg_9"/>
   <path d="m259.3736026000977,516.9088098144531 c-2.1047000000000002,0.22515000000000002 -5.598,1.7228 -1.4629,2.3379000000000003 c1.9696000000000002,0.54615 4.8072,0.30950000000000005 1.4629,-2.3379000000000003 z" id="svg_10"/>
   <path d="m420.15360260009766,516.4788098144531 c-1.9326,2.0388 -5.4095,4.8483 -5.584,7.1836 c3.0713,-0.41803 8.1394,-2.0815 8.1289,-5.6152 c-0.5832400000000001,-0.6740400000000002 -1.7211,-1.6869 -2.5449,-1.5684 z" id="svg_11"/>
   <path d="m121.87360260009766,508.0488098144531 c-5.2308,2.6283000000000003 5.663600000000001,1.2407 1.3535,0.08790000000000002 c-0.4297,0.025100000000000004 -1.0122,-0.7591600000000001 -1.3535,-0.08790000000000002 z" id="svg_12"/>
   <path d="m161.65360260009766,504.3188098144532 c-4.2136,8.688 5.0869,16.129 12.785,17.871 c3.0041,0.5297200000000001 8.665000000000001,2.5439 10.471,-0.6836000000000002 c-3.1563,-8.4454 -12.962,-10.549 -19.557,-15.516 c-1.1537,-0.57047 -2.5636,-1.5461 -3.6992000000000003,-1.6719000000000002 zm38.758,7.4707 c-3.3465000000000003,0.99297 -3.1932,3.3678 0.22070000000000004,3.3516 c1.5366,0.33629000000000003 5.9857,0.26436000000000004 2.7051,-1.8066 c-0.86521,-0.45564 -1.9446,-2.2527 -2.9258,-1.5449000000000002 zm32.707,9.7578 c-2.128,0.5308200000000001 -9.8023,2.3112 -4.0879,3.4492000000000003 c5.8272,1.4907 12.051,2.3603 18.176,1.2852000000000001 c-4.0813,-2.6712000000000002 -9.1444,-5.2917 -14.088,-4.7344 z" id="svg_13"/>
   <path d="m399.8836026000977,499.07880981445317 c-2.7858,1.1648 -7.4205,1.8088000000000002 -8.75,4.6836 c5.1179,3.3896 14.114,4.2535 18.4,-0.7714799999999999 c0.5526400000000001,-2.6754000000000002 -4.7787,-2.423 -6.4629,-3.5781 c-1.0549,-0.05930000000000001 -2.1398,-1.0555 -3.1875,-0.33399000000000006 z" id="svg_14"/>
   <path d="m410.18360260009763,487.9388098144532 c-2.9043,1.7008 -8.9557,3.4374000000000002 -8.4648,7.4082 c4.814,3.6948000000000003 11.606,-2.1309 9.0879,-7.675800000000001 l-0.6230500000000001,0.26758000000000004 z" id="svg_15"/>
   <path d="m430.54360260009764,485.58880981445316 c-4.5443,3.3344 4.7722,0.05800000000000001 1.707,-0.43164 c-0.5952000000000001,0.020400000000000005 -1.4408,-0.56038 -1.707,0.43164 z" id="svg_16"/>
   <path d="m378.77360260009766,465.86880981445313 c-3.2352,1.2216 -5.7237,8.7195 -0.3906200000000001,7.9434000000000005 c2.6851000000000003,-1.3542 1.3780000000000001,-6.6003 0.3906200000000001,-7.9434000000000005 z" id="svg_17"/>
   <path d="m207.16360260009765,442.2488098144531 c-1.7212,0.7291500000000001 -4.2246,2.8025 -0.8398400000000001,2.832 c1.5166,0.40726 6.1578,0.030600000000000006 2.8203,-1.9824 c-0.5992500000000001,-0.25599 -1.2893000000000001,-1.5984 -1.9805,-0.8496100000000001 z" id="svg_18"/>
   <path d="m188.05360260009763,440.6888098144532 c-1.7498,1.1528 -4.3832,4.698 -0.3828100000000001,3.9922 c1.7359,0.12155 6.6456,-1.3127 3.0039,-3.1074 c-0.7647800000000001,-0.30280000000000007 -1.9288,-1.7264 -2.6211,-0.8847600000000001 z" id="svg_19"/>
   <path d="m227.62360260009768,439.30880981445307 c-3.0547,1.8045 -4.4696,7.0265 0.6835900000000001,5.9512 c2.4198,0.28672000000000003 7.1479,-2.055 3.1973000000000003,-4.2871 c-1.0839,-0.52722 -2.8435,-2.776 -3.8809,-1.6641000000000001 z" id="svg_20"/>
   <path d="m200.24360260009763,434.2488098144531 c-1.322,2.479 0.29727000000000003,3.2463 2.043,0.97461 c1.7311,-1.3881000000000001 -1.3939000000000001,-0.8349400000000001 -2.043,-0.97461 z" id="svg_21"/>
   <path d="m430.41360260009765,431.5288098144531 c-2.4663,2.3325 -6.6307,5.1584 -8.4766,6.8379 c5.423,-0.9510700000000001 2.1934,8.3544 -1.4004,4.0117 c-1.4915,-0.9607700000000001 0.5822200000000001,-4.3696 -1.7266000000000001,-1.8965 c-11.072,8.5212 -26.01,15.829 -29.865,30.404 c4.8086,5.4664 13.761,7.0818 18.963,1.0039 c4.7477,-4.4936 9.1716,-10.187 12.268,-15.514 c-1.6694,-1.864 1.6924000000000001,-5.3422 3.1894,-3.7148000000000003 c3.3864,-5.1311 8.5264,-8.8345 12.699,-13 c1.8242,-3.4012000000000002 -2.3594,-9.2091 -5.6504,-8.1328 z" id="svg_22"/>
   <path d="m317.16360260009765,428.4388098144532 c-5.1319,3.7598000000000003 -2.7411000000000003,11.174 2.3808000000000002,13.762 c2.5072,1.5110999999999999 6.6732000000000005,4.3025 9.377,2.6738 c-2.1574,-6.3999 -7.4337,-11.338000000000001 -11.502,-16.67 l-0.25585,0.23438 zm5.7422,9.2676 c2.259,4.0587 -5.2186,5.2542 -5.2344,1.0371 c0.06560000000000002,-2.345 4.7914,-3.2304 5.2344,-1.0371 z" id="svg_23"/>
   <path d="m181.24360260009763,423.7888098144531 c-2.1412,0.012100000000000001 -6.4343,1.5497 -2.5,3.0879 c1.6825,1.2508 5.6174,1.4545 3.5176,-1.7988 c-0.29129,-0.4253200000000001 -0.28012000000000004,-1.6258000000000001 -1.0176,-1.2891 z" id="svg_24"/>
   <path d="m117.38360260009765,422.7588098144531 c-1.1995,1.6146000000000003 -5.3023,4.6233 -3.582,6.5273 c3.7805,1.2796 9.9738,-3.3298 4.832,-6.5039 c-0.3869800000000001,-0.07070000000000001 -0.9137400000000001,-1.348 -1.25,-0.023400000000000008 zm26.205,5.168 c-1.6560000000000001,1.9174 -2.6819,5.4115 0.7949200000000001,3.4082 c1.7852000000000001,-0.58942 5.8298000000000005,-3.4852 1.5547,-3.7246 c-0.7608600000000001,0.021700000000000004 -2.1082,-0.8848700000000002 -2.3496,0.3164100000000001 z" id="svg_25"/>
   <path d="m303.23360260009764,420.59880981445315 c-2.0824,2.2514 -4.3859,8.4475 0.8535200000000001,8.1816 c2.9826,0.5394599999999999 9.8149,-2.6351 5.5059000000000005,-5.7676 c-1.6132,-0.83711 -4.958600000000001,-4.1788 -6.3594,-2.4141 z" id="svg_26"/>
   <path d="m200.54360260009764,418.7588098144531 c-2.1539,6.5268 5.4774,14.041 11.66,12.254 c-1.6855000000000002,-5.4483 -6.6249,-10.061 -11.557,-12.615 l-0.10352000000000001,0.36133000000000004 z" id="svg_27"/>
   <path d="m436.3336026000976,418.0488098144531 c-2.5491,0.6703500000000001 -3.1909,2.6709 0.07810000000000002,2.2734 c2.1687,0.47817000000000004 0.94452,-2.8755 -0.07810000000000002,-2.2734 z" id="svg_28"/>
   <path d="m325.1336026000977,410.94880981445317 c-2.0166,2.8508 -6.7624,7.1024 -4.502,10.604 c5.94,1.1677 8.5286,-7.1117 4.9902,-11.15 l-0.48828000000000005,0.54688 z" id="svg_29"/>
   <path d="m491.92360260009764,407.7788098144531 c-3.8680000000000003,-0.14376000000000003 -4.4344,1.7938 -0.05080000000000001,2.2637 c2.5292,1.0347 1.2599,-2.4119 0.05080000000000001,-2.2637 z" id="svg_30"/>
   <path d="m335.33360260009766,407.2788098144531 c-10.975,1.556 -12.541,18.742 -3.8633,23.91 c4.4190000000000005,-0.7530500000000001 5.8486,-7.0092 6.5039,-10.6 c-2.7298,-3.8363 1.1545,-10.627 -2.6406,-13.311 zm18.775,14.814 c-2.4496,1.7555 -3.8162000000000003,5.6635 0.6328100000000001,3.9941 c2.1231,-0.18367 5.3331,-2.5049 1.459,-3.6348000000000003 c-0.6266900000000002,-0.11815000000000002 -1.6461000000000001,-1.3534000000000002 -2.0918,-0.3593700000000001 zm-4.2129,11.49 c-2.4375,0.7759900000000001 -7.9753,4.9495000000000005 -2.2871,5.4668 c2.8545,1.0668 7.4536,-1.0825 4.166,-4.3262 c-0.5432,-0.43390000000000006 -0.9368700000000001,-2.2769 -1.8789000000000002,-1.1406 z" id="svg_31"/>
   <path d="m256.14360260009767,389.5088098144531 c-5.1804,5.1702 2.3244000000000002,13.538 7.877,9.959 c0.16367,-4.5484 -4.5233,-7.7136000000000005 -7.4473,-10.609 l-0.42969,0.6503900000000001 zm61.736,12.266 c-1.9677000000000002,1.7511 -4.0628,6.3065 0.50781,4.5352 c1.9548,-0.28412000000000004 6.68,-2.8035 2.5801,-4.1699 c-0.89153,-0.13648000000000002 -2.5336,-1.754 -3.0879,-0.36524 z" id="svg_32"/>
   <path d="m559.5336026000977,386.71880981445315 c-2.5599,1.8135 -5.7697,8.5254 0.002,7.3691 c5.3572,-0.51661 3.2252,-6.3291 -0.002,-7.3691 z" id="svg_33"/>
   <path d="m532.1536026000977,383.73880981445313 c-2.3452,1.4996 -2.9582,4.4943 0.6914100000000001,3.5273 c2.2028,0.05720000000000001 4.4824,-1.7394 1.084,-2.9121 c-0.5153,-0.11617000000000002 -1.3266,-1.1762000000000001 -1.7753999999999999,-0.6152400000000001 zm19.801,1.3418 c-2.1375,1.0526 -6.5183,5.7889 -1.5137,6.002 c2.7747,0.85553 7.8512,-1.3506 4.1328,-4.4297 c-0.7358300000000001,-0.42890000000000006 -1.7040000000000002,-2.7771 -2.6192,-1.5723 z" id="svg_34"/>
   <path d="m165.95360260009767,380.07880981445317 c-1.3716,1.0838 -5.4442,5.6464 -1.0391,4.6895 c3.6131,-0.28303 4.7287,-3.4269 1.0391,-4.6895 z" id="svg_35"/>
   <path d="m373.04360260009764,378.9288098144531 c-5.1389,2.093 -10.539,11.038 -3.7812,14.291 c4.7273,0.91242 10.901,-3.4064 11.148,-8.1582 c-1.0218,-2.8054 -4.6161,-6.2896 -7.3672,-6.1328 z" id="svg_36"/>
   <path d="m160.42360260009767,369.4988098144531 c-4.3372,3.8426 2.1201,6.5981000000000005 3.8262,2.8535 c-0.3464800000000001,-1.3562 -2.9274,-3.9208 -3.8262,-2.8535 z" id="svg_37"/>
   <path d="m37.903602600097656,366.61880981445313 c-5.3657,0.78249 -7.0575,7.2766 -3.6719,11.295 c1.9489,2.8532 5.0927,7.4598 8.8867,6.8867 c0.7760400000000001,-5.6439 -1.1737,-11.731 -3.2051,-17.002 c-0.46514,-0.5378400000000001 -1.1978,-1.5332 -2.0098,-1.1797 z" id="svg_38"/>
   <path d="m181.89360260009767,364.21880981445315 c-8.2138,3.0119 -6.0184,13.871 -1.9492,19.523 c2.2328,2.9341 5.9039,9.0131 10.234,7.1328 c3.238,-3.9819 -0.2016,-10.128 4.4238,-13.18 c3.1869,-2.8810000000000002 5.0604,-9.2526 -0.17968,-11.031 c-3.8948,-1.8032 -8.2925,-2.2868 -12.529,-2.4453 z" id="svg_39"/>
   <path d="m171.10360260009764,354.9288098144531 c-2.5254,0.95293 -5.0328,4.0714 -0.7128900000000001,3.9844 c1.8865,0.41672000000000003 7.471,-0.06650000000000002 3.7949,-2.5645 c-0.8919400000000002,-0.42756000000000005 -2.0646,-2.3496 -3.082,-1.4199000000000002 z" id="svg_40"/>
   <path d="m184.64360260009767,352.10880981445314 c-1.7365,1.5806 -3.8838,6.2195 0.47461000000000003,5.0801 c2.0092,0.014000000000000002 7.5305,-2.3619 3.4102,-4.1621 c-1.076,-0.28258000000000005 -3.0759,-2.208 -3.8848000000000003,-0.9179700000000001 z" id="svg_41"/>
   <path d="m42.69360260009766,350.1488098144531 c-1.7388000000000001,0.8802500000000001 -5.0554,4.2267 -1.0742,4.459 c1.7221000000000002,0.5894400000000001 7.9324,0.19577000000000003 4.4043,-2.5644 c-0.9387300000000001,-0.55413 -2.2375,-2.5875 -3.3301,-1.8945 z" id="svg_42"/>
   <path d="m472.7536026000977,338.61880981445313 c-2.3188,1.404 -7.8814,2.5151 -7.6328000000000005,5.8476 c2.6917,2.3223000000000003 9.0398,3.6855 11.127,0.16602000000000003 c-0.10418000000000001,-2.3316 -1.9491,-4.5772 -3.4941,-6.0137 zm62.176,9.5156 c-1.1867,5.2524 5.7494,11.835 9.8809,6.8633 c-0.3319600000000001,-4.5394 -6.2954,-5.9488 -9.890600000000001,-7.4863 l0.010000000000000002,0.6230400000000001 z" id="svg_43"/>
   <path d="m526.6436026000977,322.0888098144531 c-3.5133,1.5221 -5.7509,7.3384 0.0703,6.1543 c4.666,-0.027700000000000006 2.3173,-5.3568 -0.0703,-6.1543 z" id="svg_44"/>
   <path d="m230.14360260009767,310.98880981445313 c-2.0232,0.1301 -4.6276,1.2685 -1.082,2.0527 c2.3471,1.2464 4.155,0.3078200000000001 1.8164,-1.8457000000000001 l-0.22265000000000001,-0.29101000000000005 l-0.5117200000000001,0.08400000000000002 z" id="svg_45"/>
   <path d="m582.3436026000977,306.0588098144531 c-1.4926,2.7261 -4.8698,6.9802 -3.9024,9.4805 c3.1318,-0.98493 8.6271,-4.6527 6.5488,-8.3223 c-0.7027200000000001,-0.5173099999999999 -1.8538000000000001,-1.2894 -2.6465,-1.1582000000000001 z" id="svg_46"/>
   <path d="m228.33360260009766,303.1288098144531 c-1.717,0.56193 -6.9017,3.1712 -2.5723000000000003,3.916 c2.0701,0.86355 6.8157,0.13211 4.0098,-2.9238 c-0.41665,-0.38600000000000007 -0.6819600000000001,-1.7360000000000002 -1.4375,-0.99219 z" id="svg_47"/>
   <path d="m422.34360260009765,292.2788098144531 c-1.9273,0.8428900000000001 -5.8974,4.6214 -1.3047,4.543 c2.9694000000000003,0.776 4.7074,-2.2385 1.9082,-4.1855 l-0.37500000000000006,-0.4394600000000001 c-0.06640000000000001,-0.06570000000000002 -0.10538,-0.17801000000000003 -0.22851000000000005,0.08200000000000002 z" id="svg_48"/>
   <path d="m518.0936026000977,286.0588098144531 c-2.3514,1.1836 -3.8978,5.101 0.12891000000000002,4.4121 c4.1049,0.008 1.6908000000000003,-2.9393000000000002 -0.12891000000000002,-4.4121 z" id="svg_49"/>
   <path d="m362.27360260009766,281.6888098144531 c-1.0959,1.5977000000000001 -4.3422,4.5833 -3.2168,6.0762 c3.4605,0.3169700000000001 10.12,-4.6338 4.0898,-6.7559000000000005 c-0.40854,-0.34288000000000013 -0.59718,0.37972000000000006 -0.8730500000000001,0.6796900000000002 z" id="svg_50"/>
   <path d="m19.85660260009766,276.2488098144531 c-1.1639,1.7048 -4.1398,6.9137 -1.2188,7.8242 c2.3638,-1.3419 2.2525,-7.6555 1.2188,-7.8242 z" id="svg_51"/>
   <path d="m589.7736026000977,266.60880981445314 c-5.4112,3.9920999999999998 0.40985000000000005,12.438 5.1797,13.139 c-0.31655000000000005,-4.7228 -3.2632,-9.1735 -5.1797,-13.139 z" id="svg_52"/>
   <path d="m535.5136026000977,246.6388098144531 c-2.2059,8.3892 9.6465,13.793 7.418,22.461 c-1.4427,6.1069 -9.819700000000001,5.3548 -11.291,11.207 c-11.922,23.293 -2.2209,53.209 17.392,68.887 c7.4555,2.1342 15.297,-2.598 17.297,-10.049 c6.2412,-15.68 3.5798,-34.528 13.957,-48.561 c3.5663,-8.818200000000001 -3.0438,-18.598 -10.85,-22.971 c-11.246,-7.0222 -24.825,-11.052 -33.924,-20.975 z" id="svg_53"/>
   <path d="m397.14360260009767,236.71880981445315 c-2.7026000000000003,0.5907400000000002 -6.5564,2.4604 -1.3262,2.5645 c1.037,0.09570000000000004 8.5658,0.78055 4.9785,-1.541 c-1.2014,-0.18638000000000002 -2.4449,-1.3314000000000001 -3.6524,-1.0234 z" id="svg_54"/>
   <path d="m588.5336026000977,230.72880981445314 c-3.4048,6.2301 -2.287,16.126 3.8711,20.043 c1.7510000000000001,-5.9934 0.23625000000000002,-12.935 -1.707,-18.719 c-0.35746000000000006,-0.46015 -1.669,-2.2771 -2.1641,-1.3242 z" id="svg_55"/>
   <path d="m381.3236026000977,225.78880981445315 c-1.2107,1.7176 -0.9658000000000001,4.3674 1.5332,2.7754 c1.5131999999999999,-0.45837000000000006 3.7665,-2.4465 0.5664,-2.4863 c-0.6844000000000001,-0.12625 -1.4176,-0.28362000000000004 -2.0996,-0.28906000000000004 z" id="svg_56"/>
   <path d="m431.4436026000977,223.49880981445312 c-1.4359000000000002,1.6213000000000002 -5.813,7.2778 -0.8632900000000001,5.334 c2.1129000000000002,-0.79822 5.7445,-2.1152 6.0078,-4.3184000000000005 c-1.4372,-0.6592800000000001 -3.7172,-1.4927000000000001 -5.1445,-1.0156 z" id="svg_57"/>
   <path d="m83.10360260009764,200.05880981445313 c-1.5455,0.6634400000000001 -6.5365,3.3417 -2.4375,3.5254 c1.7453,0.4419700000000001 6.7721,-0.3409000000000001 3.3789000000000002,-2.8144 c-0.30333000000000004,-0.09910000000000004 -0.5318700000000001,-0.8170900000000001 -0.94141,-0.7109400000000001 z" id="svg_58"/>
   <path d="m474.6936026000976,197.55880981445313 c-4.2497,4.5581 -1.779,13.944 5.3457,12.115 c4.9937000000000005,-1.8664 -0.09900000000000003,-7.7456000000000005 -2.5078,-9.9336 c-0.82716,-0.57045 -2.0751,-2.3572 -2.8379000000000003,-2.1816 z" id="svg_59"/>
   <path d="m548.4536026000976,190.74880981445312 c-1.9286,-0.08140000000000001 -7.5392,0.9340900000000001 -3.7324,3.3379000000000003 c1.509,1.0648 5.0407,3.5606 6.4375,1.75 c-0.26180000000000003,-1.6383 -0.74033,-5.2098 -2.7051,-5.0879 z" id="svg_60"/>
   <path d="m480.2236026000977,185.2088098144531 c-2.3012,2.3122 -3.6247000000000003,8.4788 1.457,7.5566 c3.5407,0.35364 6.6301000000000005,-3.845 2.3633,-5.8144 c-1.0454,-0.46267 -2.9204,-2.6429 -3.8203,-1.7422 z" id="svg_61"/>
   <path d="m85.81360260009765,182.93880981445312 c-2.2836,2.5196 -7.7622,7.5977 -3.8418,10.887 c3.2454,1.921 12.123,1.7639 11.629,-3.4766 c-1.4241000000000001,-3.3834 -4.8708,-5.5201 -7.7871,-7.4102 z" id="svg_62"/>
   <path d="m152.52360260009766,181.4488098144531 c-2.4921,3.4268 -7.8606,9.527 -3.498,13.404 c4.5208,2.2308 13.457,1.3454000000000002 14.691,-4.416 c-1.4260000000000002,-4.7032 -7.0657,-7.3553 -11.193,-8.9883 zm28.533,11.182 c7.605,4.3496 1.8018,-6.8099 0,0 zm10.232,-0.92773 c-4.0135,0.9131400000000001 -4.8022,2.7082 -0.5332,3.4258 c1.8907000000000003,0.48219 3.1129000000000002,-3.8925 0.5332,-3.4258 zm-5.0606,4.209 c0.27365,2.0213 2.8520000000000003,3.8472 4.0234,4.4844 c-1.3882,-1.4931 -3.4638,-2.465 -4.0234,-4.4844 z" id="svg_63"/>
   <path d="m399.29360260009764,180.93880981445312 c-5.3275,4.319 -5.2423,14.7 0.49610000000000004,18.236 c2.0478,-5.472 0.7560500000000001,-11.729 0.38867000000000007,-17.422 c-0.17633000000000001,-0.25075 -0.4932,-1.389 -0.8847700000000002,-0.81445 zm49.605,6.0547 c-3.4264,2.4916 1.0762,3.3905000000000003 2.6328,1.7772999999999999 c-0.55132,-0.7126400000000002 -1.8684,-2.2829 -2.6328,-1.7772999999999999 z" id="svg_64"/>
   <path d="m307.11360260009764,178.79880981445314 c-2.9964,3.2779 -5.4826,10.229 0.15820000000000004,12.23 c5.4409,1.8263 14.519,2.4505 17.895,-3.1016 c-2.1834000000000002,-6.2316 -9.8668,-7.3489 -15.574,-8.3867 c-0.8286700000000001,-0.19035000000000002 -1.6904000000000001,-0.52537 -2.4785,-0.7421900000000001 z" id="svg_65"/>
   <path d="m228.17360260009764,179.8388098144531 c-4.1809,3.2283 -1.4827,10.679 3.8789000000000002,8.7344 c2.8133,-2.7869 -1.6470000000000002,-6.9991 -3.3945,-9.3633 l-0.4843800000000001,0.6289100000000001 zm22.412,3.0254 c-3.2062,1.7242000000000002 -9.3145,6.5138 -5.2617,10.451 c3.746,3.0265 11.226,5.9349 15.156,2.0898 c-0.37523,-5.2678 -6.2915,-9.7825 -9.8945,-12.541 z" id="svg_66"/>
   <path d="m539.4036026000977,171.61880981445313 c-5.4064,2.2477 -0.5558900000000001,8.7621 3.084,5.6133 c0.26565,-1.7532 -1.5796000000000001,-6.0428 -3.084,-5.6133 z" id="svg_67"/>
   <path d="m341.40360260009766,169.81880981445312 c-1.6510000000000002,1.1782 -3.0802,3.3053 0.2461,2.1348 c4.2918,-0.4444600000000001 2.3215,-2.532 -0.2461,-2.1348 z" id="svg_68"/>
   <path d="m352.84360260009765,167.10880981445314 c-1.5358,2.517 -1.0148,9.2083 3.2051,6.5723 c3.6106000000000003,-1.9844 -1.6464,-7.5992 -3.2051,-6.5723 z" id="svg_69"/>
   <path d="m544.6536026000977,166.93880981445312 c1.4179,16.653 -7.6792,33.977 -0.015600000000000003,49.93 c3.8926000000000003,7.9198 13.499,14.981 22.305,10.168 c10.531,-6.9539 10.899000000000001,-21.991 8.9316,-33.189 c-1.826,-10.852 -9.1494,-22.122 -20.931,-23.413 c-3.5774,-1.0448 -7.244,-2.1128 -10.35,-4.245 l0.06050000000000001,0.7500000000000001 z" id="svg_70"/>
   <path d="m107.88360260009765,157.0788098144531 c-1.945,1.5473 -6.0638,3.5498000000000003 -6.1328,5.8477 c3.446,0.6634300000000001 8.8628,0.30222000000000004 10.691,-2.8848000000000003 c-0.93144,-1.3034000000000001 -3.04,-3.1153 -4.5586,-2.9629000000000003 z" id="svg_71"/>
   <path d="m402.99360260009763,148.81880981445312 c-2.8930000000000002,2.6725000000000003 0.8516300000000001,5.9286 3.2754,3.5469 c-0.09580000000000002,-1.5359 -2.1829,-3.0579 -3.2754,-3.5469 z" id="svg_72"/>
   <path d="m319.46360260009766,143.30880981445313 c-5.6283,4.1825 1.2948,9.7599 6.041,9.6348 c3.9208,0.93016 8.4226,-2.1105 7.332,-6.4609 c-4.1712,-0.55336 -10.424,0.93355 -12.969,-3.5274 l-0.40430000000000005,0.35352000000000006 z" id="svg_73"/>
   <path d="m360.36360260009764,140.97880981445314 c-2.2124,0.5186900000000001 -4.9405,2.2079 -0.8789100000000001,2.3848000000000003 c2.3054,0.70226 5.2897,-0.21246000000000004 1.9336000000000002,-2.2695 c-0.31190000000000007,-0.25708000000000003 -0.56015,-0.7253400000000001 -1.0547,-0.11524000000000002 zm45.469,2.2285 c-2.316,1.3425 -1.7028,3.0689 1.041,2.2637 c3.214,-0.23722000000000001 -0.21704000000000004,-1.7223000000000002 -1.041,-2.2637 z" id="svg_74"/>
   <path d="m445.7336026000977,128.55880981445313 c-2.2017,0.9981599999999999 -3.8007,3.7312000000000003 -0.19922000000000004,3.4512 c2.0529,0.40407000000000004 5.5176,-0.7553300000000001 1.9727000000000001,-2.5801 c-0.5194599999999999,-0.19175000000000003 -1.2292,-1.3748 -1.7734,-0.8711000000000001 z" id="svg_75"/>
   <path d="m447.40360260009766,118.36880981445313 c-1.3753000000000002,1.4793 -1.7174,3.68 0.8046800000000001,2.5898000000000003 c1.8162,-0.22490000000000004 5.3743,-2.3883 1.3633000000000002,-2.5879000000000003 c-0.6024200000000001,0.09420000000000003 -1.8638000000000001,-0.81383 -2.168,-0.002 z" id="svg_76"/>
   <path d="m391.11360260009764,105.48880981445313 c-4.0547,3.0669 -5.2346,10.127 0.6367200000000002,12.178 c3.325,1.5745 10.774000000000001,3.8654 12.467,-0.78711 c-0.80844,-5.1558 -5.0844,-9.4368 -10.262,-10.059 c-1.0307,-0.08550000000000002 -2.0935,-1.6746000000000003 -2.8418,-1.332 zm52.605,1.1074 c-3.2960000000000003,0.70228 -7.2129,2.532 -10.346,0.42383000000000004 c-4.6078,3.5994 -5.8812,11.61 0.53125,14.342 c4.4111,3.367 14.483,2.5741 13.326,-4.6855 c-0.70042,-3.4067 -1.6121,-6.8487 -2.6328,-10.045 c-0.27882000000000007,-0.10490000000000001 -0.5906100000000001,-0.05420000000000001 -0.8789100000000001,-0.0352 zm-27.969,15.389 c-2.9847,8.9777 -12.454,14.773 -21.809,13.068 c-11.956,-0.82571 -23.557,-8.6252 -35.604,-5.0195 c-7.9038,3.8892 -9.0589,13.924 -13.508,20.703 c-5.6607,10.533 -8.752600000000001,24.364 -1.1875,34.818 c4.1294,5.0469 0.55154,12.099 -0.15625000000000003,17.912 c-1.2511999999999999,7.9067 -6.2712,17.483 -0.6699200000000002,24.756 c6.8738,6.0483 16.249,1.6924000000000001 24.049,4.2774 c6.7414000000000005,2.1921 9.9372,9.8584 16.379,12.141 c5.0559,-2.7576 5.8162,-9.0292 6.9141,-14.139 c4.124,-9.9431 19.484,-9.0229 25.492,-1.4648 c3.8377,5.7654 -3.3157,10.948 -8.314400000000001,12.248 c-6.8092,1.2616 -8.2343,8.9742 -5.0449,14.186 c5.194,11.309 14.404,22.165 12.621,35.404 c1.6273,14.693 16.893,21.31 29.076,25.254 c4.1418,1.4302000000000001 8.3601,2.7189 12.254,4.7656 c-2.0825,7.8472 -2.2694,19.715 6.4746,23.461 c9.1851,0.5896100000000001 14.242,-9.6876 15.477,-17.521 c3.0688,-11.03 2.5537,-24.405 11.086,-33.078 c5.8522,-4.9857 13.911,-0.78602 19.193,2.6094 c13.527,-2.3742 17.696,-17.794 16.926,-29.404 c-0.30373,-7.8151 -1.7105000000000001,-15.68 -4.877,-22.863 c3.205,-4.0641 5.6334,-11.261 -0.44726000000000005,-13.998 c-8.2336,-4.4457 -19.974,-8.1022 -21.354,-18.982 c-0.12296000000000001,-4.6016 0.33949000000000007,-9.2931 -3.3516,-12.848 c-3.6534,-4.4253 -7.7442,2.3672 -9.8379,5.0352 c-3.3562,4.3496 -6.0314,9.743 -11.092,12.4 c-14.355,-5.0138 -20.911,-20.053 -24.553,-33.64 c-3.5992,-12.817 -8.4015,-26.902 -20.701,-33.897 c-8.2104,-6.6626 -6.5462,-19.053 -13.301,-26.518 l-0.13477,0.3339800000000001 zm-38.76,94.955 c5.7166,0.47681000000000007 0.5791200000000001,8.861 -3.0371,5.457 c-1.9702,-2.6343 -0.3324100000000001,-5.8403 3.0371,-5.457 z" id="svg_77"/>
   <path d="m86.76360260009767,98.87880981445312 c-7.735,3.0409 -12.758000000000001,11.325 -14.594,18.867 c4.1786,-4.7073 6.3814,-11.052 12.523,-13.729 c1.4644,-0.8958900000000002 4.8859,-4.2149 2.0703,-5.1387 z" id="svg_78"/>
   <path d="m147.82360260009764,87.05880981445313 c-7.1298,0.38127000000000005 -11.3,7.7552 -16.09,12.215 c-6.5842,6.6583000000000006 -12.205,16.661 -22.287,18.197 c0.8129000000000001,3.5307 1.6469,11.302 -3.6035,11.604 c-4.5689,-2.6870000000000003 1.9035,-8.9797 1.4258000000000002,-11.695 c-7.4529,-1.1248 -11.143,-9.6574 -14.572,-14.414 c-24.075,20.187 -37.013,49.851 -55.638,74.638 c-6.0752,14.173 -15.581,27.799 -16.411,43.602 c-0.13858,4.2427 2.733,4.5671 4.7852,1.1816 c1.8664,-1.8714 6.6834,-6.7559000000000005 8.1211,-2.0449 c-2.7887,8.5415 -8.9288,15.867 -11.67,24.561 c-2.6223,6.6745 -4.2997,14.809 0.06636000000000002,21.074 c8.9272,28.565 19.75,56.86 25.051,86.309 c12.175,16.782 14.715,39.203 29.221,54.43 c4.1306,4.2763 10.749,5.3553 16.107,2.8691 c10.324,8.0508 25.578,14.406 38.053,7.6094 c5.7344,-3.5832 7.5211,-10.492 8.7578,-16.689 c7.9884,9.6047 16.644,22.61 12.404,35.666 c-2.364,6.355 -8.9551,9.8982 -15.316,11.023 c-5.2707,12.933 0.008,27.746 10.598,36.336 c11.592,9.8954 25.912,16.569 40.189,20.75 c4.887700000000001,-1.8479 2.2585,-9.3609 6.8242,-10.963000000000001 c5.19,1.2965 5.5161,8.7243 10.07,11.273 c11.727,10.628 28.515,5.8704 42.385,3.8203 c4.0605,-0.5499 8.1698,-0.9406000000000001 12.27,-0.6757800000000002 c-4.8972,-4.6676 -13.328,-8.5497 -13.543,-16.221 c1.8356000000000001,-5.9466 9.8875,-6.877 15.197,-6.1856 c7.2413,1.2931 9.9966,9.5565 16.074,12.35 c4.3874,-0.6256100000000001 4.7496,-7.8384 8.875,-6.9394 c4.4607,-1.8122 7.5347,-9.8114 13.125,-7.5371 c1.093,0.4973800000000001 1.2725,3.1472 2.1621,0.5976600000000001 c13.843,-18.225 35.428,-27.837 53.927,-40.224 c6.4123,-6.8125 0.6265400000000001,4.9531 2.2585,8.566 c0.6636900000000002,10.473 18.182,12.569 19.9,1.6621000000000001 c1.5857,-4.3852 -4.1799,-11.298 3.2988,-10.57 c8.5773,-1.1909 16.519,-9.0179 13.982,-18.256 c-1.9396,-8.6475 -7.3614,-18.676000000000002 -16.621,-20.709 c-6.3702,2.3815 -4.4491,-0.3816800000000001 -1.9258000000000002,-4.3945 c1.0038,-4.5617 -6.3058,-4.637700000000001 -9.2734,-5.3858 c-5.1690000000000005,-1.4451 -11.771,0.5586700000000001 -16.436,-2.4892 c-1.6756000000000002,-4.2583 4.9947,-4.6266 7.5688,-5.694 c5.4147,-0.014000000000000002 2.888,-6.6286000000000005 1.5796000000000001,-9.8372 c-6.9262,-12.3 -24.299,-14.462 -36.553,-9.9004 c-6.8592,2.3705 -11.502,8.18 -13.275,15.007 c-2.3918,6.3852 -3.2966,-0.41309 -3.5666,-3.7958 c-3.9048,-9.3021 -15.024,-12.06 -22.9,-16.99 c-4.1986,-1.9338000000000002 -11.126,-6.7632 -7.0958,-11.938 c4.3314,-4.7831 10.948,-6.1972000000000005 16.93,-6.6035 c5.7979,-1.1289 3.8248,-8.2776 0.92921,-11.452 c-5.4446,-6.7678 3.1036,-1.2502 6.4516,0.34409000000000006 c11.909,5.0392 27.398,5.9645 38.072,-2.25 c5.8749,-5.7421 0.3283700000000001,-14.171 -4.3262,-18.686 c-5.2153,-1.8078 -11.544,-2.1881 -16.662,-5.1133 c-8.6221,-3.8021000000000003 -18.351,-12.908 -14.318,-23.223 c3.332,-7.1029 10.599,-13.777 18.969,-12.09 c16.043,1.1046 30.668,12.118 47.01,9.0625 c7.7582,-1.9809 11.496,-9.918 14.152,-16.629 c2.9772,-2.207 8.2107,-8.0665 2.4648,-10.547 c-12,-6.4055 -28.575,-6.1714 -37.127,-18.111 c-1.0622,-1.8438 -1.2155,-4.2449 -3.9551,-3.1973000000000003 c-7.3451,0.6453500000000001 -15.601,-4.0742 -22.215,0.2968700000000001 c-4.064,4.5699000000000005 -0.44755000000000006,12.28 -6.3613,15.682 c-10.289,6.752800000000001 -23.448,2.5794 -34.75,1.8438 c-4.1653,0.12318000000000001 -11.193,-2.3396 -13.539,2.2539 c-0.19254000000000004,3.5969 1.1785,7.305 4.6602,8.6133 c3.9256,4.9619 -3.3402000000000003,9.9251 -4.8789,14.248 c-2.1616,2.9339 -0.23274000000000003,6.5732 -0.05630000000000001,9.2148 c-5.633900000000001,11.128 -20.225,8.5944 -29.508,14.311 c-8.4209,6.5807 -3.2947,18.332 -0.09180000000000002,26.381 c1.3880000000000001,5.4817 6.5995,11.704 3.6875,17.418 c-4.7024,3.2929 -9.999600000000001,-2.0256 -14.07,-4.2285 c-5.2204,-5.5673 -12.264,-1.3739000000000001 -18.461,-1.1602000000000001 c-5.2481,-0.6949900000000002 -3.3036,-7.779 -3.4941,-10.443 c-13.608,0.7387900000000002 -24.935,-10.407 -38.447,-9.4336 c-4.9188,2.8241 -6.7107,2.6153 -4.0488,-2.9746 c4.2579,-8.1301 15.251,-8.6973 21.283,-14.416 c-4.556,-3.5237 -10.924,-4.367 -14.408,-9.4492 c-10.434,-11.576 -6.0349,-29.869 3.9258,-40.268 c7.1,-8.2322 19.612000000000002,-14.032 29.998,-8.4688 c-0.5431400000000001,5.4489 4.54,9.7143 9.8476,7.7773 c8.2661,-1.2798 14.991,-6.8773 22.613,-9.627 c6.8132,-0.46312000000000003 14.147,-0.55152 20.965,1.4102000000000001 c0.6990500000000002,-4.8044 5.0637,-11.266 10.523,-8.0059 c4.8289,2.4571 10.292,9.8968 15.844,4.6797 c4.5600000000000005,-5.6426 12.353,-9.8252 12.348,-18.156 c1.0562,-11.094 -11.72,-18.071 -21.387,-14.35 c-3.3905000000000003,-0.46337000000000006 -5.2589,-5.561 -6.5312,-8.8926 c-2.974,-9.6066 6.1544,-16.934 13.373,-21.352 c5.4884,-4.2646 15.572,-8.0013 14.478,-16.441 c-0.5124299999999999,-2.1495 -1.8766000000000003,-4.2471 -3.2285,-5.7891 c1.6026000000000002,5.397 -9.2968,4.4127 -6.3457,-0.80859 c0.23957,-2.0853 4.5678,-2.0576 2.084,-3.7246 c-7.4053,-7.9465 -7.5566,-20.871 -0.46875,-29.057 c2.2422,-3.2634 6.0209,-5.8847000000000005 8.3828,-8.4199 c-11.15,-14.964 -31.26,-18.216 -48.779,-18.926 c-7.1808,0.14242000000000002 -15.018,-0.23351000000000002 -21.732,2.2695 c-15.142,13.856 -38.043,12.689 -53.729,25.449 c-6.4052,5.2824 -7.3451,14.136 -7.875,21.508 c-8.0331,9.0737 -17.059,19.2 -29.393,21.879 c-8.9546,1.5654 -13.895,-9.1935 -12.535,-16.501 c5.4675,-14.549 8.9353,-31.561 21.342,-42.055 c1.948,-1.7249 5.3139,-1.7651000000000001 4.7578000000000005,-5.0664 c0.36961000000000005,-3.4802 3.4995000000000003,-6.9385 2.4766,-10.229 c-0.7389100000000001,-0.29929 -1.5608,-0.29610000000000003 -2.3457,-0.28906000000000004 zm101.25,8.9238 c3.3657,0.6834400000000002 6.0964,6.1254 1.6426000000000003,7.3867 c-3.8827000000000003,1.8297 -8.6092,-3.0347 -4.8887,-6.2344 c1.0332,-0.8316400000000002 1.8977000000000002,-2.7656 3.2461,-1.1523 zm130.98,9.25 c-2.4225,1.7212 -1.2421,4.4092 1.5215,3.6016000000000004 c4.091,-0.031200000000000006 0.6962400000000002,-3.3025 -1.1309,-4.0664 l-0.39063000000000003,0.46485000000000004 zm-64.783,25.727 c-2.3113,2.4616 -7.6135,9.3723 -1.8574000000000002,10.635 c5.0664,1.1782 9.2575,-4.9415 4.8594,-8.7207 c-0.8196000000000001,-0.60006 -2.0872,-3.5749 -3.002,-1.9141 zm13.967,29.785 c-1.5238,1.145 -5.1096,5.0442 -0.7656200000000002,3.8867000000000003 c1.7392,-0.10976000000000002 7.1923,-2.0602 3.084,-3.6562 c-0.71538,-0.15458000000000002 -1.7784,-1.4802 -2.3184,-0.23047 zm-220.6,7.2207 c8.556000000000001,16.894 20.835,34.553 18.219,54.467 c-0.49073,4.2609 -2.462,8.3399 -4.0937,12.08 c9.2096,20.984 26.648,38.781 29.701,62.203 c1.3094000000000001,10.082 -4.2274,20.065 -12.863,25.164 c-7.7118,-5.6666 -18.896,-6.4577 -24.92,-14.309 c-2.7586000000000004,-5.3705 3.0411,-10.016 7.084,-12.529 c0.6146500000000001,-19.585 -1.2173,-40.237 -11.715,-57.34 c-2.0191,-4.4055 -7.3675,-0.3889100000000001 -11.16,-1.4746000000000001 c-7.4656,0.41700000000000004 -15.547,-5.5957 -14,-13.678 c1.6820000000000002,-10.684000000000001 11.068,-17.769 14.914,-27.582 c1.8588,-4.0193 6.0114,-11.897 -0.33594000000000007,-13.83 c-9.1863,-0.8022 -3.0364,-2.7084 1.7109,-5.3496 c4.7816,-2.4893 3.8494,-8.2282 3.7891,-12.672 c1.2233,1.6165 2.4466,3.2331 3.6699,4.849600000000001 zm-50.34,5.6699 c3.1493,2.8909000000000002 1.0955,8.8404 -3.541,7.9024 c-4.3607,-0.17371000000000003 -4.1159,-5.8666 -0.7597700000000002,-7.3711 c1.5522,-0.7672800000000001 3.4212,-3.4738 4.3008,-0.53125 zm83.105,2.6113 c3.7465,1.2618 6.2429,7.724 1.0098,8.7461 c-4.7195,1.2810000000000001 -7.1344,-4.804 -4.0078,-7.8945 c1.0589,-1.5749 1.2758,-2.6296 2.998,-0.85156 zm-5.1406,3.082 c1.7606000000000002,3.8151 -4.303,6.4275 -4.9922,1.8887 c-1.0507,-2.9614000000000003 5.7724,-6.1057 4.9922,-1.8887 zm160.79,-0.8066400000000001 c-1.7181000000000002,2.0258 -3.3247,6.8574 0.8789000000000001,4.1621 c1.9655,-0.6724400000000001 5.0365,-3.8652 1.0996000000000001,-4.373 c-0.6413000000000001,-0.028500000000000004 -1.8126000000000002,-1.0132 -1.9785,0.21094000000000004 zm-258.79,13.615 c4.9415,0.8369200000000001 12.595,5.6037 8.6074,11.312 c-3.1458,4.8551 -13.192,5.2376 -13.4,-1.9219 c0.08930000000000002,-3.4061 1.4531,-8.5738 4.1368,-9.5892 l0.6561600000000001,0.19860000000000003 zm76.367,7.2852 c-1.9893999999999998,0.6429800000000001 -6.2978000000000005,3.8272 -1.7109,3.9297 c3.4558,0.6389700000000001 4.2738,-1.991 1.7109,-3.9297 zm105.96,14.957 c3.0585,2.1519 -0.30451000000000006,7.9048 -3.25,4.6152 c-1.3557000000000001,-2.0284 0.3749800000000001,-7.4098 1.5131000000000001,-6.5841 c0.57896,0.6562900000000002 1.1579000000000002,1.3126 1.7369,1.9688 zm-45.5,-0.9316400000000001 c6.1669,2.9617 11.699,10.884 6.9531,17.41 c-2.7921,5.0646 -12.472,8.2786 -15.096,1.5312000000000001 c-1.7455,-7.2149 3.1259,-13.999 6.4023,-20.01 l1.7402000000000002,1.0684 zm37.082,10.123 c4.7885,-0.36336000000000007 2.7451,8.705400000000001 -1.6113,5.5098 c-3.0053,-1.6788000000000003 -2.107,-5.78 1.6113,-5.5098 zm-168.51,7.9219 c4.5082,2.4018 1.9297,9.8886 -3.166,8.3848 c-4.5168,-1.9354 -0.6718900000000002,-7.5881 1.582,-9.7227 c0.528,0.4459700000000001 1.056,0.8919300000000001 1.584,1.3379 zm177.77,1.6113 c4.2616,6.9166 -8.4524,5.6032 -3.2637,-0.39844000000000007 c1.978,-2.3736 1.8534000000000002,-2.7788 3.2637,0.39844000000000007 zm176.5,25.975 c-2.5937,2.0393 -1.3167,4.3049 1.5801,2.7207 c2.9927,-0.8831500000000001 -0.45567,-2.1064 -1.5801,-2.7207 zm-238.56,0.7558600000000001 c5.1268,-1.0738 4.9916,10.08 -0.7480500000000001,9.0469 c-4.2289,0.023500000000000007 -7.9359,-6.6408000000000005 -2.8887,-8.4863 c1.1532,-0.44753000000000004 2.4105,-0.5448700000000001 3.6367000000000003,-0.56055 zm174.39,31.529 c-1.2719,0.94043 -4.8734,4.7823 -0.9414,4.3398 c3.7096,-0.09080000000000002 3.9388,-2.3200000000000003 0.9414,-4.3398 zm-110.93,7.9863 c-7.2835,4.4919 -3.4273000000000002,14.588000000000001 2.0703,18.998 c1.3931,1.4588 5.598,4.2665 3.4199,0.06840000000000002 c-1.9724,-4.7472 -5.8686,-9.372 -3.6973000000000003,-14.709 c0.22920000000000004,-1.6427 1.0472,-4.8625 -1.7930000000000001,-4.3574 zm-165.09,5.1309000000000005 c5.195,-0.6969600000000001 2.2166,4.6418 0.19922000000000004,6.8125 c-5.1874,3.2981 -6.7108,-6.9444 -0.19922000000000004,-6.8125 zm178.95,0.13867 c4.7612000000000005,0.26635000000000003 1.5539,7.668 -1.6953,4.1406 c-1.5053999999999998,-1.4951 -0.7613300000000001,-4.5468 1.6953,-4.1406 zm-76.748,16.041 c4.4779,0.8718100000000001 2.5968,7.3971 -1.5312000000000001,6.2734 c-3.9895,-0.6622800000000001 -1.1994,-8.094 1.5312000000000001,-6.2734 zm135.9,-0.10937000000000001 c3.9062,-0.6367300000000001 4.7342,5.9838000000000005 0.40429,5.0469 c-3.7258,0.22939000000000004 -6.4438,-5.0345 -0.40429,-5.0469 zm-170.07,1.3496000000000001 c3.2786,1.6264 0.7726200000000001,6.5242 -2.4258,4.4023 c-3.7678000000000003,-1.5471 -0.35663,-6.5062 2.4258,-4.4023 zm19.75,3.5762 c1.0561,4.8489 -7.5485,9.0408 -8.7891,3.3086 c0.6992000000000002,-3.9903 5.7995,-4.6962 8.7695,-6.2891 c0.007,0.99349 0.013000000000000003,1.987 0.019500000000000003,2.9805 zm40.5,10.285 c5.3753,0.06710000000000002 2.6917,9.2106 -1.7852000000000001,6.2305 c-1.9842,-2.3325 -3.6351,-6.9386 1.7852000000000001,-6.2305 zm57.666,8.0976 c5.5531,2.9626 8.491,11.143 3.1973000000000003,15.791 c-3.7578,4.0126 -12.774000000000001,7.0216 -15.758000000000001,0.7246100000000001 c-1.1606,-6.221 3.4649,-12.587 8.2754,-15.957 c1.36,0.04480000000000001 3.1861,-2.164 4.2852,-0.5586000000000001 zm252.36,9.3984 c-7.4451,12.322 -12.72,28.374 -6.9238,42.354 c3.6391,7.9143 13.748,10.354 21.492,8.5625 c9.4484,-7.5758 4.707,-20.557 -0.08650000000000002,-29.319 c-3.2662,-6.787 -7.2169,-13.494 -8.392,-21.044 c-1.6009000000000002,-0.6089300000000001 -4.9987,-2.4282 -6.0898,-0.55273 zm-244.76,17.396 c2.0922,3.0042 3.1536,10.007 -2.1836,9.9453 c-5.3769,-0.42265 -6.0402,-7.9773 -1.5449000000000002,-10.199 c1.8736000000000002,-0.9529700000000001 2.9013999999999998,-3.2812 3.7285,0.2539 zm74.613,13.646 c3.8352,-0.026600000000000006 3.4333,6.0263 -0.43554000000000004,4.8574 c-2.1752000000000002,-0.84013 -2.3582,-4.837 0.43554000000000004,-4.8574 zm-5.8398,0.73828 c4.6328000000000005,0.18473000000000003 4.314,6.8079 -0.013700000000000004,7.1016 c-5.0918,0.8932100000000001 -3.3916,-8.2871 0.013700000000000004,-7.1016 zm10.619,3.0977 c3.869,-0.52561 4.2604,5.4159 0.25195,5.2793 c-3.5228,0.44771000000000005 -3.3462,-5.9293 -0.25195,-5.2793 zm3.8301,7.1308 c2.3329,3.7304 -4.7654,5.3528 -4.6973,1.1328 c-0.11084000000000001,-2.1622 4.4652,-3.5964 4.6973,-1.1328 zm85.779,6.4316 c-3.744,1.13 -5.4614,6.1565 -0.17382,5.6387 c3.7032,0.71156 3.6422,-3.3454 1.1992,-5.0664 c-0.35706000000000004,0.06410000000000002 -0.5489400000000001,-1.3465 -1.0254,-0.57226 zm-11.678,5.5254 c-3.4325,1.5757 -7.543,8.1961 -1.7402000000000002,9.3965 c6.315,1.4391 4.0932,-7.218 1.7402000000000002,-9.3965 zm-55.055,0.28906000000000004 c4.7814,-0.40178 9.5742,0.94233 11.266,5.8652 c2.0652,4.3661 -3.8013,6.2058 -6.9883,4.5606 c-4.3614,-0.19362000000000001 -14.929,-7.0394 -7.0664,-10.176 c0.91533,-0.19631000000000004 1.8554,-0.24542000000000003 2.7891,-0.25 zm-135.86,2.998 c3.5141999999999998,2.8393 6.5686,10.257 0.83203,12.42 c-4.831,1.8902 -9.3498,-4.0275 -6.5547,-8.3301 c1.2594,-1.8122 3.8294,-8.0195 5.7226,-4.0898 zm156.64,4.5176 c-0.40931000000000006,3.1861 -3.1027,9.6832 -7.1348,6.707 c-3.5433,-4.8364 2.8748,-9.825 7.5373,-9.9294 c1.1360000000000001,-0.53506 -0.56916,2.6535 -0.40249,3.2223 zm-206.62,6.7402 c2.9574,3.5741 -3.7298,6.6139 -4.9746,2.5 c-0.9778,-2.5676 4.2658000000000005,-5.0246 4.9746,-2.5 zm198.96,2.0508 c5.2509,0.21756000000000003 0.06890000000000002,7.9543 -2.3965,3.5898000000000003 c-0.55723,-1.5774 0.35914,-4.0098 2.3965,-3.5898000000000003 zm-176.78,13.75 c3.6743,3.3558 8.7578,11.073 2.5898000000000003,14.516 c-5.4367,2.75 -15.037,-2.2125 -11.645,-8.918 c1.7974,-2.9417 5.7469,-6.6012 8.6282,-6.0588 l0.42650000000000005,0.46115 zm207.68,14.52 c-1.5847000000000002,0.96321 -5.5771,4.7775 -1.2774,4.1816 c3.1582,0.012000000000000002 4.071,-2.5784000000000002 1.2774,-4.1816 zm-51.727,5.2617 c-2.7582,0.8714400000000001 -5.6972000000000005,5.4454 -0.6718700000000002,4.5547 c2.7533000000000003,0.28024 2.5741,-5.3261 0.6718700000000002,-4.5547 zm-13.318,9.9199 c-4.8133,1.1637 -7.483,8.1297 -1.6602000000000001,9.877 c4.0401,2.3159 5.9621,-2.8467000000000002 4.0859,-5.918 c-0.42513,-1.1694 -1.3164,-3.985 -2.4258,-3.959 zm-124.84,0.6660200000000002 c4.3593,-0.8090900000000001 5.0465,7.63 0.25586000000000003,5.4512 c-2.4216,-0.9169400000000001 -3.9293,-5.1365 -0.25586000000000003,-5.4512 zm-10.717,9.0644 c5.6930000000000005,0.31875000000000003 -0.27458000000000005,8.7555 -2.4922,3.416 c-0.6182500000000001,-1.6704 0.60655,-3.6706000000000003 2.4922,-3.416 zm45.23,2.8164 c3.2823,0.24884000000000003 5.0408,5.5552 0.9511700000000001,5.9297 c-3.5715,0.12413000000000002 -4.221,-4.3868 -3.7793,-7.0449 c0.94271,0.37175 1.8854000000000002,0.7434900000000001 2.8281,1.1152 zm-85.334,2.8398000000000003 c3.629,0.04330000000000001 7.2105,5.9719 2.1602,6.8027 c-4.0978,0.05290000000000001 -5.1572000000000005,-4.9762 -5.724600000000001,-8.0684 c1.1882000000000001,0.4218800000000001 2.3763,0.8437600000000001 3.5644,1.2656 zm191.16,-0.27930000000000005 c-1.6286,1.8028 -5.6446000000000005,4.4479 -4.8242,6.9805 c4.12,1.1767 8.3253,-4.1857 4.8242,-6.9805 zm-144.53,0.98047 c2.9909,2.2665 4.0574,8.4141 -0.7558600000000001,9.0606 c-4.4424,1.4982 -9.7342,-4.3517 -5.0918,-7.6055 c1.5634000000000001,-0.90222 4.746700000000001,-3.7046 5.8477,-1.4551 zm156.92,10.801 c-1.7745,0.30989000000000005 -6.7105,2.082 -2.582,2.8359 c2.3953,0.7663400000000001 4.68,-0.54605 2.582,-2.8359 z" id="svg_79"/>
   <path d="m260.29360260009764,78.71880981445312 c-2.3707000000000003,1.4617 -7.3332,3.3431 -7.627,5.662100000000001 c4.3642,0.8351700000000001 10.402,0.7532900000000001 13.594,-2.4805 c-1.3272,-1.5314 -3.9754,-3.8727 -5.9668,-3.1816 z" id="svg_80"/>
   <path d="m487.16360260009765,75.95880981445313 c-1.4326,3.6808 4.6399,5.3334 5.7461,2.4629 c-1.1973,-1.3394000000000001 -4.686,-3.3737 -5.7461,-2.4629 z" id="svg_81"/>
   <path d="m179.73360260009764,73.83880981445313 c-1.8491,0.18096000000000004 -5.9008,1.9322 -2.1387,2.8184 c2.7201,1.0258 3.811,-0.3739200000000001 2.1387,-2.8184 z" id="svg_82"/>
   <path d="m240.22360260009765,62.218809814453124 c-3.2076000000000002,1.6625 -5.1992,7.5439 -0.021500000000000005,7.6934000000000005 c3.3406000000000002,1.158 6.4364,-2.2308 3.1426,-4.9062 c-0.87956,-0.7883 -2.0222,-3.1356 -3.1211,-2.7871 zm60.324,8.8867 c-5.5883,0.40796000000000004 -1.8804,2.0032 2.0449,1.6270000000000002 c-0.6084200000000001,-0.5153599999999999 -1.2778,-1.4518 -2.0449,-1.6270000000000002 z" id="svg_83"/>
   <path d="m261.20360260009767,58.06880981445312 c-1.3012000000000001,1.1205 -3.9625,5.0424 -0.36133000000000004,3.7734 c2.0362,-0.54813 4.5708,-2.1462 0.36133000000000004,-3.7734 z" id="svg_84"/>
   <path d="m271.91360260009765,52.13880981445311 c-2.9988,1.9722 -7.0952,7.9186 -1.1387,9.1074 c5.2098,1.2379 12.846,2.0637 16.676000000000002,-2.3008 c-2.6235,-5.2291 -10.357,-7.6186 -15.537,-6.8066 zm30.803,9.9629 c-2.2975,1.283 -5.3753,6.1378 -0.7461000000000001,6.3164 c2.6177,0.87256 6.8167,-1.4196 3.6035,-4.1289 c-0.78424,-0.5304 -1.8961000000000001,-2.8869000000000002 -2.8574,-2.1875 z" id="svg_85"/>
   <path d="m374.5636026000977,49.008809814453116 c-3.0627,2.2004 -9.8425,5.9224 -6.7656,10.385 c6.706,4.6675 16.96,5.7536000000000005 24.156,1.6035 c2.2271,-3.8893 -3.4344,-7.3368 -6.0195,-9.5195 c-3.5048,-1.9449 -7.5593,-2.3085 -11.371,-2.4688 z" id="svg_86"/>
   <path d="m435.80360260009763,30.36880981445313 c1.0082,4.0304 8.1694,8.601 10.916,4.3242 c-2.0662,-3.0748 -8.5119,-4.638 -10.916,-4.3242 z" id="svg_87"/>
   <path d="m22.921602600097657,418.1588098144531 c-0.50668,4.076 2.8212,9.3681 4.6563,13.514 c1.838,3.5321 4.1181,7.4056 6.1758,10.396 c-4.8311,-6.4558 -5.4309,-14.81 -8.6289,-22.043 c-0.4958000000000001,-0.79566 -1.1205,-1.9209 -2.2031,-1.8672 zm73.002,1.8164 c-5.703,7.3626000000000005 5.6809,16.473 12.271,11.918 c1.1605,-6.6831000000000005 -6.0135,-11.517 -11.912,-12.506 l-0.3593800000000001,0.5878900000000001 zm-38.467,12.121 c-3.6065,3.1634 1.9504000000000001,3.6056 3.4297,1.8203 c-0.6451900000000002,-0.6800600000000001 -2.6739,-2.8726000000000003 -3.4297,-1.8203 z" id="svg_88"/>
   <path d="m1.8686026000976597,305.72880981445314 c-1.6991,6.6192 -0.81444,14.017 1.2793,20.242 c-0.25626,-6.6231 -0.81552,-13.701 -1.2793,-20.242 z" id="svg_89"/>
   <path d="m2.74160260009765,278.4588098144531 c-0.8927900000000002,2.3818 -0.26888000000000006,2.9555 0.19141000000000005,0.41211000000000003 c0.027760000000000007,-0.19170000000000004 -0.05806000000000001,-1.3417000000000001 -0.19141000000000005,-0.41211000000000003 z" id="svg_90"/>
   <path d="m6.362602600097659,258.1988098144531 c-2.9267000000000003,1.0068 -2.1792,5.902 0.09961000000000003,2.3867000000000003 c0.18381000000000003,-0.52403 0.58851,-2.9462 -0.09961000000000003,-2.3867000000000003 z" id="svg_91"/>
   <path d="m10.548602600097652,233.71880981445315 c-2.3217,1.5034999999999998 -3.3873,8.5676 0.8398400000000001,6.584 c1.6599000000000002,-1.5442 0.42218000000000006,-6.9564 -0.8398400000000001,-6.584 z" id="svg_92"/>
   <path d="m38.513602600097656,162.98880981445313 c-7.8959,15.051 -15.295,30.505 -20.127,46.842 c6.7407,-16.205 14.564,-32.041 20.939,-48.336 l-0.47773,0.87851 l-0.33477000000000007,0.6156300000000001 z" id="svg_93"/>
   <path d="m64.09360260009765,123.5188098144531 c-5.1321,2.2252 -9.5134,8.623 -8.1973,13.926 c3.6166,-3.9239 5.5951,-9.4632 8.1973,-13.926 z" id="svg_94"/>
   <path d="m71.34360260009765,112.94880981445311 c-1.5556,0.90337 -3.5303,3.3564 -0.48828000000000005,1.5194999999999999 c0.5723400000000001,-0.13847 1.702,-2.6185 0.48828000000000005,-1.5194999999999999 z" id="svg_95"/>
   <path d="m111.53360260009765,73.26880981445314 c-7.9742,1.8244 -12.033,10.85 -12.305,18.332 c6.5423,-7.0938 2.3613,1.7587000000000002 2.4375,6.2129 c0.43719,2.3368 3.9246,-1.2683 5.0137,-1.7949000000000002 c3.8064,-3.3336 8.4573,-7.6784 9.4824,-12.359 c-3.7276000000000002,-0.73406 -8.354800000000001,5.756 -11.02,1.4531 c0.36568000000000006,-4.3955 5.3287,-8.2779 6.3906,-11.844 z" id="svg_96"/>
   <path d="m124.49360260009766,63.528809814453126 c-2.2326,1.7421000000000002 -6.9895,4.8299 -6.918,6.6777 c3.5183999999999997,-0.6689700000000002 7.5496,-3.1288 7.7402,-7.0664 l-0.82226,0.3886800000000001 zm61.938,9.7695 c-2.8366000000000002,0.8523700000000001 -5.6858,4.1381 -1.0527,4.1699 c1.7468000000000001,0.42423 6.5175,-0.11844000000000002 3.5039,-2.709 c-0.6999600000000001,-0.4283200000000001 -1.474,-2.4785 -2.4512,-1.4609 zm-14.92,0.81445 c-2.6409000000000002,0.28346000000000005 -9.1578,3.7286 -5.7988,6.6387 c3.5848,0.24305000000000002 5.3043000000000005,-4.0415 6.4961,-6.8066 l-0.6972600000000001,0.16797000000000004 z" id="svg_97"/>
   <path d="m225.87360260009768,55.55880981445313 c-1.6171000000000002,3.2327 -5.0681,7.2335 -3.707,10.926 c3.9479,0.6551200000000001 11.196,-4.0475 8.3867,-8.4258 c-1.2191,-1.2664 -3.1276,-2.3068 -4.6797,-2.5 zm-91.414,0.31055000000000005 c-2.684,1.0773 -2.5422000000000002,2.0507 0.15039000000000002,0.4414100000000001 c0.3495100000000001,-0.16883000000000004 0.8724900000000001,-1.3696000000000002 -0.15039000000000002,-0.4414100000000001 z" id="svg_98"/>
   <path d="m168.61360260009766,35.468809814453124 c-2.4793000000000003,0.6471300000000001 -3.6616,1.831 -0.18359000000000003,0.8261700000000001 c0.6680300000000001,0.031900000000000005 1.0057,-0.99537 0.18359000000000003,-0.8261700000000001 z" id="svg_99"/>
   <path d="m173.46360260009766,33.228809814453115 c-7.1377,2.3916 4.3788,-0.7190000000000001 0,0 z" id="svg_100"/>
   <path d="m193.86360260009764,24.028809814453126 c0.4284700000000001,-0.05670000000000001 0.6104,-0.22086000000000003 0,0 z" id="svg_101"/>
  </g>
 </g></g></svg>