<?xml version="1.0" encoding="UTF-8"?>
<svg viewBox="0 0 500 500" xmlns="http://www.w3.org/2000/svg">
 <defs>
  <radialGradient id="a" cx=".33981" cy=".32843" r=".28082">
   <stop stop-color="#fff" stop-opacity=".46667" offset="0"/>
   <stop stop-color="#fff" stop-opacity=".10833" offset="1"/>
  </radialGradient>
 </defs>
 <path transform="matrix(1.0475 0 0 1.05 -36.719 -19.064)" d="m492.93 257.81a219.87 218.44 0 1 0 -439.74 0 219.87 218.44 0 1 0 439.74 -2.2e-4l-219.87 2.2e-4z" fill="#00f" fill-rule="evenodd"/>
 <path d="m118.72 81.156c-56.036 77.88-71.232 35.141-56.986 78.83s-23.744 76.931 27.543 42.739 39.89-81.679 82.629-45.588 87.378-8.5478 63.634 49.388 11.397 142.46 42.739 42.739-42.739-46.538-12.347-118.72 76.931-88.328 21.844-100.67c-75.031 37.99-106.37 84.529-136.77 60.785s-30.392-8.5478-32.292-9.4976z" fill="#00a" fill-rule="evenodd"/>
 <path d="m405.55 188.48c-10.447 66.483-4.7488 89.277-38.94 84.529s-62.684-17.096-37.99 31.342 84.529 7.5981 52.237 56.986-7.5981 57.935-76.931 82.629-48.438 36.091-41.789 37.041c46.538-1.8995 202.3-38.94 217.5-216.55-33.242-132.02-73.132-74.081-74.081-75.981z" fill="#00a" fill-rule="evenodd"/>
 <path d="m83.579 378.43c15.196-26.593 18.045-39.89 37.041-26.593s4.7488 8.5478 39.89 22.794 26.593-24.694 47.488 2.8493-5.6986 24.694-13.297 49.388-57.935 27.543-57.935 16.146-39.89 4.7488-53.187-64.584z" fill="#00a" fill-rule="evenodd"/>
 <path transform="matrix(1.0475 0 0 1.05 -36.719 -19.064)" d="m492.93 257.81a219.87 218.44 0 1 0 -439.74 0 219.87 218.44 0 1 0 439.74 -2.2e-4l-219.87 2.2e-4z" fill="url(#a)" fill-rule="evenodd"/>
</svg>
