<?xml version="1.0" encoding="UTF-8"?>
<svg viewBox="0 0 781.98 686.74" xmlns="http://www.w3.org/2000/svg">
 <defs>
  <filter id="g" x="-390.99" y="-343.37" width="200%" height="200%">
   <feGaussianBlur in="SourceGraphic" stdDeviation="7.2"/>
  </filter>
  <linearGradient id="h" x1=".57159" x2=".4449" y1=".36735" y2=".7449">
   <stop stop-color="#797265" offset="0"/>
   <stop stop-color="#797265" stop-opacity="0" offset="1"/>
  </linearGradient>
  <radialGradient id="l" cx="335.28" cy="342.66" r="128.34" gradientTransform="matrix(1.3654 .81258 -.23374 .39276 -33.913 -36.513)" gradientUnits="userSpaceOnUse">
   <stop stop-color="#ac9877" stop-opacity="0" offset="0"/>
   <stop stop-color="#ac9877" offset="1"/>
  </radialGradient>
  <radialGradient id="k" cx="334.72" cy="404.74" r="134.42" gradientTransform="matrix(1.4233 .83556 -.10251 .17462 -104.37 22.232)" gradientUnits="userSpaceOnUse">
   <stop stop-color="#ccb986" stop-opacity="0" offset="0"/>
   <stop stop-color="#c3ad70" offset=".5"/>
   <stop stop-color="#ccb986" stop-opacity="0" offset="1"/>
  </radialGradient>
  <radialGradient id="j" cx="389.15" cy="296.44" r="145.3" gradientTransform="matrix(1.2618 .69454 -.095713 .17388 -73.927 -49.291)" gradientUnits="userSpaceOnUse">
   <stop stop-color="#c4a361" stop-opacity="0" offset="0"/>
   <stop stop-color="#c4a361" offset=".5"/>
   <stop stop-color="#c4a361" stop-opacity="0" offset="1"/>
  </radialGradient>
  <radialGradient id="i" cx="429.06" cy="193.36" r="115.33" gradientTransform="matrix(1.3262 .75667 -.23767 .41658 -86.795 -211.57)" gradientUnits="userSpaceOnUse">
   <stop stop-color="#b29b7a" offset="0"/>
   <stop stop-color="#b29b7a" offset=".75"/>
   <stop stop-color="#b29b7a" stop-opacity="0" offset="1"/>
  </radialGradient>
 </defs>
 <path d="m518.94 391.82a148.88 135.68 0 1 1 -297.75 -171.91 148.88 135.68 0 1 1 297.75 171.91z" fill="#e7c278" stroke-linecap="round" stroke-linejoin="round" stroke-width=".317"/>
 <path d="m202.72 299.45c5.6705 123.1 145.68 204.42 256.68 147.82-94.183-28.849-186.53-81.499-256.68-147.82z" fill="url(#l)" fill-rule="evenodd" stroke-width=".5"/>
 <path d="m377.88 147.06c63.942 9.4651 100.84 40.672 125.78 72.637 14.473 17.976 27.185 45.096 30.958 67.939-80.4-14.994-172.49-64.268-230.66-133.48 22.796-7.3719 47.946-10.623 73.914-7.0914z" fill="url(#i)" stroke-linecap="round" stroke-linejoin="round" stroke-width=".438"/>
 <g stroke-width=".5">
  <path d="m376.8 146.93c34.924 39.032 83.749 65.972 128.66 75.07-36.835-47.564-81.523-69.486-128.66-75.07z" fill="url(#h)" fill-rule="evenodd"/>
  <g stroke-linecap="round" stroke-linejoin="round">
   <path d="m202.58 285.35c77.22 71.754 165.62 125.7 268.74 155.13-3.5622 2.5661-7.5682 4.5088-11.602 6.6191-96.053-28.958-183.9-79.618-257.06-148.23-0.26991-5.5742-0.19827-8.5328-0.076492-13.514z" fill="url(#k)"/>
   <path d="m248.89 186.52c66.972 74.02 197.13 152.33 285.13 164.75-0.58801 2.4498-1.2354 4.8653-1.8826 7.2808-88.662-12.243-221.36-91.455-288.72-166.69 1.8076-1.7889 3.5914-3.5915 5.4702-5.3393z" fill="url(#j)"/>
  </g>
 </g>
 <g filter="url(#g)">
  <path d="m518.94 391.82a148.88 135.68 0 1 1 -297.75 -171.91 148.88 135.68 0 1 1 297.75 171.91z" fill="#f00" stroke-linecap="round" stroke-linejoin="round" stroke-width=".317"/>
 </g>
 <g transform="matrix(.77891 .4497 -.4497 .77891 -335.42 -714.23)" fill="#ffd4aa" stroke-linecap="round" stroke-linejoin="round" stroke-width=".616">
  <path d="m1073.3 517.75c-154.98 12.367-263.84 41.366-263.84 75.125 0 44.988 193.31 81.5 431.5 81.5s431.53-36.512 431.53-81.5c0-32.914-103.7-61.233-252.53-74.094 0.27942 0.57031 0.47742 1.1766 0.75 1.75 143.28 12.746 242.78 40.185 242.78 72.062 0 43.998-189.08 79.719-422.03 79.719s-422-35.72-422-79.719c0-32.645 104.18-60.682 253.03-73 0.28992-0.60339 0.51562-1.2448 0.8125-1.8438z"/>
  <path d="m1072.3 520.06c-147.52 12.305-250.69 40.131-250.69 72.531 0 43.778 188.1 79.312 419.88 79.312s419.91-35.535 419.91-79.312c0-31.635-98.475-58.898-240.44-71.625 1.4054 2.9791 2.7804 5.9705 4 9.0312 116.48 12.214 195.47 35.664 195.47 62.594 0 39.505-169.78 71.562-378.94 71.562s-378.91-32.058-378.91-71.562c0-27.707 83.656-51.703 205.69-63.594 1.233-3.0426 2.629-5.9954 4.0312-8.9375z"/>
  <path d="m1061.4 550.09c-65.976 9.9877-108.34 25.3-108.34 42.5 0 30.076 129.23 54.469 288.47 54.469s288.5-24.393 288.5-54.469c0-16.287-38.109-30.857-98.156-40.844 0.95337 3.9606 1.8108 7.9638 2.4688 12.031 33.263 7.9267 53.281 17.921 53.281 28.812 0 25.656-110.26 46.469-246.09 46.469s-246.06-20.813-246.06-46.469c0-11.956 24.154-22.823 63.469-31.062 0.6947-3.8594 1.5111-7.6802 2.4688-11.438z" fill-opacity=".73"/>
  <path d="m1067.4 530.84c-116.78 11.778-196.34 35.014-196.34 61.75 0 38.621 165.93 69.969 370.41 69.969s370.44-31.348 370.44-69.969c0-25.934-75.013-48.54-186.09-60.625 2.4558 6.4132 4.3765 13.036 6 19.781 60.047 9.9869 98.156 24.557 98.156 40.844 1.22e-4 30.076-129.26 54.469-288.5 54.469s-288.47-24.393-288.47-54.469c0-17.2 42.368-32.512 108.34-42.5 1.6764-6.5767 3.6331-13.035 6.0625-19.25z"/>
 </g>
</svg>
