<?xml version="1.0" encoding="UTF-8"?>
<svg viewBox="0 0 69.594978 69.594978" xmlns="http://www.w3.org/2000/svg">
 <defs>
  <filter id="b">
   <feGaussianBlur stdDeviation="2.29294"/>
  </filter>
  <linearGradient id="a" x1="51.013" x2="109.6" gradientUnits="userSpaceOnUse">
   <stop stop-color="#fff" offset="0"/>
   <stop stop-color="#fff" stop-opacity="0" offset="1"/>
  </linearGradient>
 </defs>
 <g transform="translate(-45.51 -274.09)" fill-rule="evenodd">
  <path d="m109.6 308.89c0 16.179-13.116 29.294-29.294 29.294s-29.294-13.116-29.294-29.294 13.116-29.294 29.294-29.294 29.294 13.116 29.294 29.294z" fill="#ac9393" opacity=".72414"/>
  <path d="m82.28 314.07c0 8.3702-9.7663-8.1831-12.187 0.90697-0.30766 1.1553 0.89275 5.5208-0.07044 6.2331-4.8654 3.5979 3.5815 10.547-2.9299 10.547-4.0792 0-13.322-13.514-10.423-16.808 4.3908-4.9897 8.6642-2.6002 5.5249-8.4104-2.2348-4.136-7.9679 8.2734-7.9679 3.2454 0-9.4997 5.4081-10.148 10.644-11.129 3.6767-0.68868-4.9846-11.201 1.6862-11.201 2.4688 0 5.9052-1.8378 8.443-1.8684 3.1243-0.0378 1.7273 2.22 0.30589 7.799-1.2433 4.88-4.7396 9.3939-2.3447 9.9733 6.4476 1.5598 11.64-0.81259 9.3188 10.712z" fill="#ac9393" opacity=".72414"/>
  <path d="m91.977 303.31c-3.1352-6.0631-6.8488-0.83543-8.6832-8.4323-0.23314-0.96552 7.1743 2.4457 7.5324 1.527 1.8089-4.641-6.2742-6.1422-2.0499-8.8654 2.6465-1.706 13.705 4.2176 13.058 7.8162-0.97964 5.4506-4.6471 5.507-0.43415 8.4027 2.9991 2.0614 2.0704-9.3252 3.9538-5.6831 3.5583 6.8813 4.7568 12.291 1.7272 15.191-2.1274 2.0365 2.9653 3.3508-1.3625 6.1406-1.6017 1.0325-3.1427 3.8008-4.7777 4.8844-2.0128 1.334-5.345 11.614-6.5126 6.9786-1.0213-4.0548 0.092-11.465-1.6788-10.883-4.7673 1.5666 2.0382-7.7576-0.77244-17.076z" fill="#ac9393" opacity=".72414"/>
  <path d="m109.6 308.89c0 16.179-13.116 29.294-29.294 29.294s-29.294-13.116-29.294-29.294 13.116-29.294 29.294-29.294 29.294 13.116 29.294 29.294z" fill="url(#a)" filter="url(#b)" opacity=".72414"/>
 </g>
</svg>
